<?xml version="1.0" encoding="utf-8"?>
<!-- Generator: Adobe Illustrator 25.4.1, SVG Export Plug-In . SVG Version: 6.00 Build 0)  -->
<svg version="1.1" id="_x31_" xmlns="http://www.w3.org/2000/svg" xmlns:xlink="http://www.w3.org/1999/xlink" x="0px" y="0px"
	 viewBox="0 0 1200 600" style="enable-background:new 0 0 1200 600;" xml:space="preserve">
<style type="text/css">
	.st0{fill:#AFF5F9;}
	.st1{opacity:0.51;fill:#EDFFFC;}
	.st2{fill:#CBD850;}
	.st3{fill:#B9BF3A;}
	.st4{fill:#AAAA31;}
	.st5{fill:#92A09F;}
	.st6{fill:#CFE2E1;}
	.st7{fill:#ACCCCA;}
	.st8{fill:#9FBCBB;}
	.st9{opacity:0.54;fill:#FFF6E9;}
	.st10{fill:#BCD3D1;}
	.st11{fill:#FFB048;}
	.st12{fill:#FFD85A;}
	.st13{fill:#FFE69F;}
	.st14{fill:#FFE67D;}
	.st15{fill:#FFE67B;}
	.st16{opacity:0.65;fill:#FFFFFF;}
	.st17{opacity:0.22;fill:#FFFFFF;}
	.st18{fill:#E8A838;}
	.st19{fill:#FFBE4A;}
	.st20{fill:#B6AC4A;}
	.st21{fill:#BDBB48;}
	.st22{fill:#C8BF54;}
	.st23{fill:#E79B69;}
	.st24{fill:#EDB984;}
	.st25{fill:#F4D240;}
	.st26{fill:#FFE269;}
	.st27{fill:#EDDEC3;}
	.st28{fill:#BC4A60;}
	.st29{fill:#AA3954;}
	.st30{fill:#D8C5AB;}
	.st31{fill:#8C8C2D;}
	.st32{fill:#9E9B38;}
	.st33{fill:#F96E8D;}
	.st34{fill:#DD3C6E;}
	.st35{fill:#FF7694;}
	.st36{fill:#FF88A7;}
	.st37{opacity:0.31;fill:#6D3E49;}
	.st38{fill:#FFA9B8;}
	.st39{fill:#FF94B0;}
	.st40{fill:#6D3E49;}
	.st41{fill:#FFB6CD;}
	.st42{clip-path:url(#SVGID_00000044149843058198381000000008655598250333054392_);fill:#E8A838;}
	.st43{clip-path:url(#SVGID_00000044149843058198381000000008655598250333054392_);fill:#F4D240;}
	.st44{clip-path:url(#SVGID_00000044149843058198381000000008655598250333054392_);}
	.st45{fill:#FF8FAC;}
	.st46{fill:#7F4536;}
	.st47{fill:#554C5E;}
	.st48{fill:#463E4F;}
	.st49{fill:#E8D9AF;}
	.st50{fill:#D3C194;}
	.st51{fill:#EF4B57;}
	.st52{fill:#F4E6D9;}
	.st53{fill:#EFBE67;}
	.st54{fill:#FFD797;}
	.st55{fill:#87484B;}
	.st56{fill:#DD785E;}
	.st57{fill:#89B5E5;}
	.st58{fill:#473939;}
	.st59{fill:#7F4138;}
	.st60{fill:#D27558;}
	.st61{fill:#443239;}
	.st62{fill:#F4E9D6;}
	.st63{fill:#F92D59;}
	.st64{fill:#C92450;}
	.st65{fill:#FFFDF3;}
	.st66{fill:#D8C69A;}
	.st67{fill:#9268AD;}
	.st68{fill:#794F99;}
	.st69{fill:#CEAE5D;}
	.st70{fill:#DDC06C;}
	.st71{fill:#EAD48C;}
	.st72{fill:#C6174D;}
	.st73{fill:#664646;}
	.st74{fill:#543434;}
	.st75{fill:#723D3F;}
	.st76{fill:#5A4949;}
	.st77{fill:#2D171A;}
	.st78{fill:#F4E7C6;}
	.st79{opacity:0.57;}
	.st80{fill:#FFFFFF;}
	.st81{opacity:0.57;fill:#FFFFFF;}
	.st82{fill:#C19E52;}
	.st83{opacity:0.54;fill:#FFFFFF;}
	.st84{fill:#F2E4C0;}
	.st85{fill:#7C742C;}
	.st86{fill:#644A70;}
	.st87{fill:#533C5E;}
	.st88{fill:#F7ECD0;}
	.st89{fill:#754137;}
	.st90{fill:#D1B161;}
	.st91{fill:#D63044;}
	.st92{fill:#9668BA;}
	.st93{fill:#7A52A0;}
	.st94{fill:#FFCD69;}
	.st95{fill:#FFE98A;}
	.st96{fill:#FFEDC5;}
	.st97{fill:#FFE6A9;}
	.st98{fill:#E5E1D8;}
	.st99{fill:#F7F4ED;}
	.st100{fill:#443C4C;}
	.st101{fill:#584D66;}
	.st102{fill:#FFC552;}
	.st103{fill:#F9AD3E;}
	.st104{fill:#6B3F34;}
	.st105{fill:#7CBAC1;}
	.st106{fill:#7F676F;}
	.st107{fill:#A09A7F;}
	.st108{fill:#938D74;}
	.st109{fill:#AAA48C;}
	.st110{fill:#91CED8;}
	.st111{opacity:0.56;fill:#FFEFC8;}
	.st112{fill:#FFA748;}
	.st113{fill:#FFDB69;}
	.st114{fill:#A7BA56;}
	.st115{fill:#909E3F;}
	.st116{fill:#FFF1B6;}
	.st117{fill:#CE2848;}
	.st118{fill:#EA3F58;}
	.st119{fill:#EFBDCA;}
	.st120{fill:#D3B363;}
	.st121{fill:#CCAA56;}
	.st122{fill:#FFF0B3;}
	.st123{fill:#FFF8D9;}
	.st124{fill:#F26D6D;}
	.st125{fill:#C0CC66;}
	.st126{opacity:0.62;fill:#D1C79D;}
	.st127{fill:#FFF7D7;}
	.st128{fill:#BCB69C;}
	.st129{fill:#CCC6B0;}
	.st130{clip-path:url(#SVGID_00000077290522655824145490000013884255052022346638_);}
	.st131{clip-path:url(#SVGID_00000077290522655824145490000013884255052022346638_);fill:#E79B69;}
	.st132{clip-path:url(#SVGID_00000077290522655824145490000013884255052022346638_);fill:#EDB984;}
	.st133{clip-path:url(#SVGID_00000077290522655824145490000013884255052022346638_);fill:#A59F30;}
	.st134{clip-path:url(#SVGID_00000077290522655824145490000013884255052022346638_);fill:#BCB83B;}
	.st135{clip-path:url(#SVGID_00000077290522655824145490000013884255052022346638_);fill:#F4E8D3;}
	.st136{clip-path:url(#SVGID_00000077290522655824145490000013884255052022346638_);fill:#EDDEC3;}
	.st137{clip-path:url(#SVGID_00000077290522655824145490000013884255052022346638_);fill:#5F739B;}
	.st138{clip-path:url(#SVGID_00000077290522655824145490000013884255052022346638_);fill:#6D87AF;}
	.st139{clip-path:url(#SVGID_00000077290522655824145490000013884255052022346638_);fill:#4A6084;}
	.st140{clip-path:url(#SVGID_00000077290522655824145490000013884255052022346638_);fill:#784CA5;}
	.st141{clip-path:url(#SVGID_00000077290522655824145490000013884255052022346638_);fill:#673E93;}
	.st142{opacity:0.33;clip-path:url(#SVGID_00000077290522655824145490000013884255052022346638_);}
	.st143{fill:#FFE5C8;}
	.st144{clip-path:url(#SVGID_00000077290522655824145490000013884255052022346638_);fill:#C9BBA3;}
	.st145{clip-path:url(#SVGID_00000077290522655824145490000013884255052022346638_);fill:#FFD85A;}
	.st146{clip-path:url(#SVGID_00000077290522655824145490000013884255052022346638_);fill:#F4A240;}
	.st147{clip-path:url(#SVGID_00000077290522655824145490000013884255052022346638_);fill:#FFE578;}
</style>
<g>
	<rect class="st0" width="1200" height="561.5"/>
	<g>
		<path id="XMLID_1182_" class="st1" d="M883.1,187.7c-71.9,5.4-147.3,16.9-214.5-0.2c-25.8-6.6-48.9-17.1-75-23
			c-45.2-10.2-94.9-5.8-142.7-8.9c-28.9-1.9-57.3-6.6-84-13.9c-24-6.6-46.8-15.3-72.1-19.6c-35.6-6-73.7-2.8-109.8-7.6
			c-22.5-3-43.7-9.1-65.9-12.7c-23.8-3.8-48.4-4.7-72.9-5.6C30.9,95.4,15.4,94.9,0,94.3v44.5c1.6,0,3.3,0,4.9,0
			c67.2-0.3,134.1,4.2,200.9,8.8c84.3,5.8,168.5,12,252.4,19.6c24.1,2.2,48.2,4.5,72.1,7.7c42.2,5.6,83.5,13.7,124.7,21.8
			c22.3,4.4,44.9,8.8,68.2,9.6c29,1,57.6-3.6,86-7.3c78.9-10.4,159.7-14.7,240.2-12.6C994.1,183.1,938.3,183.5,883.1,187.7z"/>
		<path id="XMLID_1181_" class="st1" d="M1200,46.3c-73.7-3.9-147.6-3.8-221.3,0.4c2.9,1.6,5.8,3.2,8.8,4.8c2,3.4-2.8,6.7-6.8,8
			c-57.5,19-120.4,19.4-181.7,19.4c-109.1,0.1-218.4,0.3-327.2-7.1c-44.4-3-89.4-7.2-133.3-0.4c201.1,7.4,402.2,14.9,603.3,22.3
			c125.4,4.6,137.2-45.4,258.4,28.1L1200,46.3z"/>
	</g>
	<g>
		<path class="st2" d="M1063.5,153.2l-37.1-25.2c0,0-43.8,32.6-50,114.5l58.8,10.5C1031.5,200,1053.2,161.2,1063.5,153.2z"/>
		<g>
			<path class="st3" d="M1030.8,136.7l-3.8-2.6c0,0-16.4,12.2-29,40.7h6.1C1013.9,153.6,1025.6,141.4,1030.8,136.7z"/>
			<path class="st3" d="M1051.8,152c0,0-8,7.4-16,22.8h6.1c5.5-10.4,10.9-17.2,14-20.6L1051.8,152z"/>
		</g>
		<path class="st3" d="M1049,174.4c-5.8-0.7-11.8-2.1-17.8-4.1c-11-3.7-20.6-9-27.9-15.2c-11.6,18.4-23.9,46.8-26.9,87.3l58.8,10.5
			C1032.9,219.9,1040.5,192.4,1049,174.4z"/>
		
			<ellipse transform="matrix(0.3789 -0.9254 0.9254 0.3789 454.2606 1058.2488)" class="st4" cx="1015.5" cy="190.7" rx="16.4" ry="16.4"/>
		<path class="st5" d="M1096.6,231.2l-0.8-0.3c-2.2-1-4.4-1.7-6.7-2.1l0,0c-6.9,0-6.9-24.9,0-24.9l0,0h4c5.7,0,10.3-4.6,10.3-10.2
			c0-5.6-4.6-10.2-10.3-10.2H953.5c-5.7,0-10.3,4.6-10.3,10.2v0c0,5.6,4.6,10.2,10.3,10.2h4l0,0c6.5,0,6.5,24.9,0,24.9l0,0
			c-2.3,0.4-4.6,1.1-6.7,2.1l-0.8,0.3c-10.9,4.9-17.9,15.6-17.9,27.4v167.6c0,12.3,7.6,23.4,19.2,28c3.6,1.4,7.3,2.1,11.2,2.1h121.6
			c3.8,0,7.6-0.7,11.2-2.1c11.6-4.5,19.2-15.6,19.2-28V258.6C1114.4,246.8,1107.4,236,1096.6,231.2z"/>
		<path class="st6" d="M1093.9,234.3l-0.7-0.3c-2.1-0.9-4.3-1.6-6.5-2.1l0,0c-6.6,0-120.6,0-126.8,0l0,0c-2.2,0.4-4.4,1.1-6.5,2.1
			l-0.7,0.3c-10.5,4.7-17.2,15.2-17.2,26.7v162.9c0,12,7.3,22.8,18.5,27.2c3.4,1.4,7.1,2,10.8,2h117.2c3.7,0,7.3-0.7,10.8-2
			c11.2-4.4,18.5-15.2,18.5-27.2V260.9C1111.1,249.4,1104.4,239,1093.9,234.3z"/>
		<ellipse class="st7" cx="997.1" cy="437.2" rx="20.4" ry="11"/>
		
			<ellipse transform="matrix(0.7849 -0.6197 0.6197 0.7849 -12.3446 742.1755)" class="st7" cx="1062.7" cy="388.9" rx="20.4" ry="11"/>
		<path class="st8" d="M990.5,388l-21.3,38.2c40.1-36.5,65.7,19.8,95.8,22.4l40.5-53C1058.8,391.6,1031.8,354.6,990.5,388z"/>
		<path class="st8" d="M1048.8,363.2l41.5-17.2c0,0-3.3-54.6-68.4-104.6l-41,43.5C1027.2,310.8,1047.7,350.3,1048.8,363.2z"/>
		<path class="st8" d="M944.6,365.4l19.2,40.6c0,0,54.3-5.8,101.2-73.2l-45.4-38.9C995.9,341.4,957.5,363.7,944.6,365.4z"/>
		
			<ellipse transform="matrix(0.9638 -0.2666 0.2666 0.9638 -56.4118 274.1129)" class="st7" cx="981.5" cy="344.9" rx="18" ry="18"/>
		
			<ellipse transform="matrix(0.6879 -0.7258 0.7258 0.6879 136.5024 846.7134)" class="st7" cx="1052.7" cy="264.6" rx="22.7" ry="14.2"/>
		<path class="st5" d="M1045.2,183.4h-56c-6.1,15.8-11.1,35.4-12.8,59.1l58.8,10.5C1033.2,225,1038.4,201,1045.2,183.4z"/>
		<path class="st6" d="M1092.3,185.6h-81.6c-2,0-3.5,1.6-3.5,3.5v5.7c0,2,1.6,3.5,3.5,3.5h81.6c2,0,3.5-1.6,3.5-3.5v-5.7
			C1095.9,187.2,1094.3,185.6,1092.3,185.6z"/>
		<path class="st9" d="M1091.2,186.8h-27.7c-1.1,0-2.1,0.9-2.1,2.1v3.3c0,1.1,0.9,2.1,2.1,2.1h27.7c1.1,0,2.1-0.9,2.1-2.1v-3.3
			C1093.2,187.7,1092.3,186.8,1091.2,186.8z"/>
		<path class="st9" d="M993,186.8h-41.3c-1.1,0-2.1,0.9-2.1,2.1v3.3c0,1.1,0.9,2.1,2.1,2.1H993c1.1,0,2.1-0.9,2.1-2.1v-3.3
			C995.1,187.7,994.2,186.8,993,186.8z"/>
		<path class="st10" d="M1013.4,442.1c-3.7,0-7.3-0.7-10.8-2c-11.2-4.4-18.5-15.2-18.5-27.2V249.9c0-6.7,2.3-13,6.2-18
			c-16.3,0-28.6,0-30.5,0c-2.2,0.4-4.4,1.1-6.5,2.1l-0.7,0.3c-10.5,4.7-17.2,15.2-17.2,26.7v162.9c0,12,7.3,22.8,18.5,27.2
			c3.4,1.4,7.1,2,10.8,2h117.2c3.7,0,7.3-0.7,10.8-2c4.9-1.9,9-5,12.1-9H1013.4z"/>
		<path class="st11" d="M1039.8,103.8c6.8-8.8,6.9-20.2,0.2-25.4c-6.7-5.2-17.7-2.2-24.6,6.7c-6.9,8.8-6.9,20.2-0.2,25.4
			C1022,115.6,1033,112.6,1039.8,103.8z"/>
		
			<ellipse transform="matrix(0.6173 -0.7867 0.7867 0.6173 319.5395 842.5553)" class="st12" cx="1025.9" cy="92.8" rx="20.3" ry="15.4"/>
		<path class="st13" d="M1024.2,83.7c0-3,0.4-5.9,1-8.6c-4,1.3-8,4-11.2,7.9c1,11.8,7.6,21.7,16.5,25.7c1-0.6,2-1.3,3-2
			C1028,101.8,1024.2,93.3,1024.2,83.7z"/>
		
			<ellipse transform="matrix(0.5924 -0.8057 0.8057 0.5924 285.6529 861.1696)" class="st11" cx="993.9" cy="148.3" rx="15.4" ry="20.3"/>
		
			<ellipse transform="matrix(0.5924 -0.8057 0.8057 0.5924 288.0209 860.8048)" class="st12" cx="994.7" cy="145.8" rx="15.4" ry="20.3"/>
		<path class="st14" d="M1007.6,136.9c-1.2-1.3-2.5-2.5-4-3.6c-2.3-1.7-4.8-2.9-7.2-3.7c-4.3,5.6-7,14.4-7,24.3
			c0,2.3,0.2,4.6,0.4,6.7c1.5,0.7,3.1,1.3,4.6,1.7C994.5,150.4,1000,140.3,1007.6,136.9z"/>
		
			<ellipse transform="matrix(0.3138 -0.9495 0.9495 0.3138 224.7648 1183.8401)" class="st11" cx="931.4" cy="436.4" rx="20.3" ry="15.4"/>
		
			<ellipse transform="matrix(0.3138 -0.9495 0.9495 0.3138 223.4994 1179.928)" class="st12" cx="928.1" cy="435.3" rx="20.3" ry="15.4"/>
		<path class="st15" d="M917.4,423.2c0.9,2.1,2,4.3,3.3,6.4c5.1,8.4,11.8,14.6,18.3,17.8c0.3-0.4,0.6-0.9,0.9-1.3
			c-2.8-2.7-5.5-6-7.9-9.8c-4.2-6.7-6.6-13.6-7.1-19.4C922.2,418.1,919.5,420.3,917.4,423.2z"/>
		<path class="st10" d="M957.5,203.8c4,0,5.6,9.7,4.6,17c36.7-11.9,76.9-13.8,122.1-0.8c-0.8-7.2,0.8-16.2,4.9-16.2H957.5z"/>
		<path class="st16" d="M1087.2,239l-0.7-0.3c-2.1-0.9-4.3-1.6-6.5-2.1c-1.6,0-9.4,0-20.4,0v87c0,12,7.3,22.8,18.5,27.2
			c3.4,1.4,7.1,2,10.8,2h15.6v-87.2C1104.4,254.2,1097.7,243.7,1087.2,239z"/>
		<path class="st16" d="M1092.3,360.3l-0.5-0.2c-1.5-0.5-3-0.9-4.6-1.1c-1.1,0-6.6,0-14.4,0v48.5c0,6.7,5.2,12.7,13,15.2
			c2.4,0.8,5,1.1,7.6,1.1h11v-48.6C1104.4,368.8,1099.7,363,1092.3,360.3z"/>
		<path class="st17" d="M943.6,243.7l0.2-0.5c0.7-1.3,1.3-2.3,2.1-2.9c0.5,0,3,0,6.4,0v120.8c0,16.7-2.3,31.6-5.8,37.8
			c-1.1,1.9-2.2,2.8-3.4,2.8h-4.9V280.7C938.1,264.7,940.2,250.2,943.6,243.7z"/>
		<path class="st5" d="M946.9,447c2.1,1.6,4.5,3,7.1,4c3.4,1.4,7.1,2,10.8,2h117.2c3.7,0,7.3-0.7,10.8-2c2.6-1,4.9-2.4,7.1-4H946.9z
			"/>
		<path class="st9" d="M1072.4,222.7c0.2-2.9-16.1-6.7-31.9-7.9c-15.8-1.2-25.1,0.6-25.3,3.6c-0.2,2.9,8.9,5.9,24.6,7.1
			S1072.2,225.6,1072.4,222.7z"/>
		<path class="st11" d="M932.9,419.9c-6.6-2.1-14.1,3-16.9,11.5c-2.8,8.5,0.3,17,6.8,19.2c6.6,2.1,14.1-3,16.9-11.5
			C942.5,430.6,939.5,422,932.9,419.9z M939.1,438.8c-2.6,8-9.6,12.9-15.7,11c-6.1-1.9-8.9-10-6.3-18c2.6-8,9.6-12.9,15.7-11
			C938.8,422.8,941.7,430.8,939.1,438.8z"/>
		<g>
			<path class="st18" d="M925.6,429.2c-0.1,0-0.2-0.1-0.2-0.2c0-0.1,0-0.2,0-0.3c0.2-0.6,0.4-1,0.5-1.2c0.1-0.1,0.3-0.2,0.7-0.3
				c1.3,0.3,2.9,0.2,4.8-0.3c0.2,0,0.4,0,0.5,0c0.3,0.1,0.4,0.3,0.4,0.4c-0.4,1.2-0.7,1.8-1.1,2.7l-0.9,2.1l-0.6,1.6l-0.4,1.4
				c-0.1,0.4-0.3,1-0.7,2c-0.2,0.8-1.2,3.2-1.3,4.2c1.6,0.5,2.3,0.8,2.3,0.9l-0.3,1c-0.1,0.3-0.3,0.4-0.7,0.3
				c-0.7-0.2-1.1-0.3-1.4-0.5c-0.3-0.1-0.7-0.2-1.1-0.4c-0.7-0.1-1.5-0.3-2.7-0.5c-0.2-0.1-0.5-0.1-0.8-0.2c-0.5-0.1-1-0.2-1.6-0.3
				c-0.1,0-0.2-0.3-0.1-0.7c0-0.1,0-0.1,0.1-0.2c0.1-0.3,0.3-0.5,0.4-0.5c0.9,0.1,1.7,0.1,2.4,0.1c0.7,0.2,1,0.1,1.2-0.3
				c0.2-0.4,0.3-0.7,0.4-1c0.1-0.3,0.3-0.7,0.4-1.3l0.7-2.1c0.3-0.8,0.6-1.5,0.7-2.2c0.1-0.4,0.3-0.8,0.4-1.1
				c0.1-0.4,0.3-0.8,0.4-1.2l0.9-2.2l-2.6,0C926,429.2,925.8,429.3,925.6,429.2z"/>
		</g>
		<g>
			<path class="st18" d="M988.4,146.9c-0.1,0.1-0.2,0.2-0.2,0.1c-0.1,0-0.2,0-0.3-0.1c-0.5-0.4-0.9-0.6-1-0.7
				c-0.1-0.2-0.1-0.4-0.1-0.7c0.6-1.2,0.9-2.8,0.9-4.7c0-0.2,0.1-0.4,0.2-0.5c0.2-0.3,0.4-0.3,0.5-0.2c1,0.7,1.6,1.2,2.4,1.7
				l1.8,1.4l1.4,1l1.2,0.8c0.3,0.2,0.9,0.6,1.8,1.2c0.7,0.5,2.8,2,3.7,2.4c0.9-1.4,1.4-2,1.5-2l0.9,0.5c0.3,0.2,0.3,0.4,0.1,0.7
				c-0.4,0.6-0.6,1-0.8,1.3c-0.2,0.3-0.4,0.6-0.6,1c-0.3,0.6-0.7,1.4-1.2,2.4c-0.1,0.2-0.3,0.4-0.4,0.7c-0.2,0.4-0.5,0.9-0.7,1.5
				c-0.1,0.1-0.3,0.1-0.7-0.1c-0.1,0-0.1-0.1-0.2-0.1c-0.3-0.2-0.4-0.4-0.4-0.6c0.3-0.9,0.6-1.6,0.7-2.3c0.4-0.6,0.4-1,0.1-1.2
				c-0.3-0.2-0.6-0.4-0.8-0.6c-0.3-0.2-0.6-0.4-1.1-0.8l-1.8-1.3c-0.7-0.5-1.3-0.9-1.9-1.3c-0.3-0.2-0.7-0.4-1-0.7
				c-0.3-0.2-0.7-0.5-1-0.7l-1.9-1.4l-0.6,2.5C988.5,146.5,988.5,146.7,988.4,146.9z"/>
		</g>
		<g>
			<path class="st18" d="M1025.3,87.2c-0.1-0.1-0.2-0.2-0.1-0.2c0-0.1,0.1-0.2,0.1-0.3c0.4-0.5,0.6-0.9,0.8-1
				c0.2-0.1,0.4-0.1,0.7-0.1c1.2,0.6,2.7,1,4.6,1.1c0.2,0,0.4,0.1,0.5,0.2c0.3,0.2,0.3,0.4,0.2,0.5c-0.7,1-1.2,1.6-1.8,2.3l-1.5,1.7
				l-1,1.4l-0.8,1.2c-0.2,0.3-0.6,0.9-1.3,1.7c-0.5,0.7-2.1,2.7-2.5,3.6c1.4,0.9,2,1.4,1.9,1.6l-0.6,0.9c-0.2,0.3-0.4,0.3-0.7,0.1
				c-0.6-0.4-1-0.7-1.2-0.9c-0.3-0.2-0.6-0.4-0.9-0.7c-0.6-0.3-1.4-0.7-2.4-1.3c-0.2-0.1-0.4-0.3-0.7-0.4c-0.4-0.2-0.9-0.5-1.4-0.8
				c-0.1-0.1-0.1-0.3,0.2-0.7c0-0.1,0.1-0.1,0.1-0.2c0.2-0.3,0.4-0.4,0.6-0.4c0.9,0.4,1.6,0.6,2.3,0.8c0.6,0.4,1,0.4,1.2,0.1
				c0.3-0.3,0.5-0.6,0.6-0.8c0.2-0.3,0.5-0.6,0.8-1.1l1.3-1.7c0.5-0.7,1-1.3,1.3-1.8c0.2-0.3,0.5-0.7,0.7-1c0.2-0.3,0.5-0.6,0.8-1
				l1.5-1.9l-2.5-0.7C1025.7,87.4,1025.4,87.3,1025.3,87.2z"/>
		</g>
		<path class="st19" d="M1001.9,136c-7.2-5.2-16.3-5-20.2,0.5c-3.9,5.5-1.3,14.2,5.9,19.4c7.2,5.2,16.3,5,20.2-0.5
			C1011.8,150,1009.1,141.3,1001.9,136z M1006.3,155.3c-3.6,5-11.9,5.2-18.5,0.4c-6.6-4.8-9-12.7-5.4-17.7c3.6-5,11.9-5.2,18.5-0.4
			C1007.5,142.3,1009.9,150.3,1006.3,155.3z"/>
		<path class="st11" d="M1034.8,80.5c-5.1-3.9-13.4-1.6-18.6,5.1c-5.2,6.7-5.3,15.3-0.2,19.2c5.1,3.9,13.4,1.6,18.6-5.1
			C1039.8,93,1039.9,84.4,1034.8,80.5z M1034.2,99.2c-4.7,6-12.2,8.1-16.7,4.5c-4.6-3.5-4.5-11.2,0.1-17.3c4.7-6,12.2-8.1,16.7-4.5
			C1038.9,85.4,1038.8,93.1,1034.2,99.2z"/>
	</g>
	<rect y="453" class="st20" width="1200" height="147"/>
	<polygon class="st21" points="1200,600 0,600 0,536 1200,477 	"/>
	<g>
		<g>
			<polygon class="st22" points="592.9,453 0,524.2 0,556.7 626.7,453 			"/>
			<polygon class="st22" points="281.4,453 0,481.3 0,494.3 315.2,453 			"/>
		</g>
		<polygon class="st22" points="845,600 587.6,600 1153.2,453 1187,453 		"/>
		<polygon class="st22" points="371.7,600 1,600 886,453 919.8,453 		"/>
	</g>
	<g>
		<path class="st23" d="M326.1,104.9c0.3-10.4-0.7-18.9-1.7-21c-2-4.3-16.4-15.4-18.8-16.1s-1.3-17.2,8.8-12.5
			c10,4.7,20.5,16.8,24.2,22.7c2.2,3.4,2.4,30.8-0.2,33.5C335.7,114.2,326,107.5,326.1,104.9z"/>
		<path class="st23" d="M344.9,104.6c0.1-11.3-1-20.5-2.1-22.5c-2.2-3.8-16.5-15.1-19-15.5c-2.4-0.4-1.9-17.9,8.2-14.2
			c10.2,3.8,21,15.6,24.8,21.5c2.3,3.4,3.1,33,0.5,36.2C354.8,113.4,344.9,107.4,344.9,104.6z"/>
		<path class="st24" d="M365.3,107.7c-0.9-10.4-2.4-19.1-4.1-20.7c-1.7-1.6-18.7-9.7-21.1-10.1c-2.5-0.4-2.6-20.7,7.9-17.2
			c10.5,3.5,22.2,14.4,26.6,19.8c2.5,3.1,5.9,30.3,3.6,33.3S365.5,110.3,365.3,107.7z"/>
		
			<ellipse transform="matrix(0.7619 -0.6477 0.6477 0.7619 6.3053 250.3622)" class="st18" cx="343.7" cy="116.6" rx="24.7" ry="20.2"/>
		
			<ellipse transform="matrix(0.7619 -0.6477 0.6477 0.7619 7.6428 247.9995)" class="st25" cx="341.1" cy="113.6" rx="24.7" ry="20.2"/>
		<path class="st26" d="M349.3,122.8c-0.2,3.6-0.8,7.1-1.6,10.4c-6.8,3.2-14.2,3.4-19.9,0.5c2.5-4,4.8-8.5,6.8-13.5
			c3.9-10.3,5.4-20.3,4.6-27.9c0.7-0.2,1.5-0.4,2.2-0.5C346.9,98.9,350.1,110.2,349.3,122.8z"/>
		<path class="st18" d="M325.5,126.9c6,7.1,17.9,6.9,26.6-0.5c8.7-7.4,10.8-19.1,4.8-26.2c-6-7.1-17.9-6.9-26.6,0.5
			C321.6,108.1,319.4,119.8,325.5,126.9z M331.9,102.7c7.7-6.6,18.4-6.8,23.8-0.4c5.4,6.3,3.5,16.8-4.3,23.4
			c-7.7,6.6-18.4,6.8-23.8,0.4C322.3,119.8,324.2,109.3,331.9,102.7z"/>
		<g>
			<path class="st18" d="M346.7,112.1l-1.5-2.4l-1.5,1.8c-0.3,0.3-0.5,0.6-0.8,1c-0.3,0.3-0.6,0.6-0.8,0.9c-0.5,0.5-1,1-1.6,1.7
				l-1.5,1.6c-0.4,0.4-0.7,0.8-1,1c-0.2,0.2-0.4,0.5-0.7,0.8c-0.2,0.3-0.1,0.7,0.4,1.2c0.4,0.6,0.9,1.3,1.5,2.1
				c0.1,0.2,0,0.4-0.2,0.7c0,0.1-0.1,0.1-0.1,0.2c-0.4,0.3-0.6,0.4-0.7,0.3c-0.4-0.5-0.9-1-1.2-1.3c-0.2-0.2-0.5-0.4-0.7-0.6
				c-0.8-0.9-1.5-1.6-2-2.2c-0.4-0.3-0.7-0.6-1-0.8c-0.3-0.2-0.7-0.6-1.3-1.1c-0.3-0.3-0.3-0.5-0.1-0.8l0.8-0.7
				c0.1-0.1,0.8,0.4,2.2,1.7c0.8-0.6,2.5-2.6,3.1-3.2c0.7-0.8,1.2-1.3,1.5-1.6l1-1.1l1.1-1.3l1.4-1.8c0.6-0.7,1.1-1.3,1.9-2.2
				c0.1-0.1,0.3-0.1,0.6,0.1c0.1,0.1,0.2,0.3,0.3,0.5c0.6,1.9,1.4,3.4,2.4,4.5c0.1,0.4,0.2,0.6,0.1,0.8c-0.1,0.2-0.3,0.5-0.8,1
				c-0.1,0.1-0.2,0.2-0.2,0.2c0,0.1-0.1,0-0.3-0.1C347.1,112.7,347,112.4,346.7,112.1z"/>
		</g>
		<path class="st24" d="M326.4,77.5c-13.8,17.7-4.4,42-6.7,46.9c-2.3,4.9-15,2-16.2-1.9s-3.5-28.7-5.2-32.1
			c-1.7-3.4,4.1-26.2,3-31.3c-1.1-5.1,12.6-10.9,21.4-4.5C331.4,61,329.8,73,326.4,77.5z"/>
		<path class="st24" d="M321.5,86.4c5.3-10.9,15.2-10.2,22.6-7.9c7.4,2.3,15.6-9.2,11-15.4c-4.6-6.2-20.7-13.8-27.2-19.2
			c-6.5-5.3-16.4-14.1-16.4-14.1l-26.6,21.5c0,0,14.7,9,14.4,25.5C299.2,86.9,318.2,93.1,321.5,86.4z"/>
		<polygon class="st27" points="323.7,36.7 290.7,62.4 277.8,51.8 311.8,24.2 		"/>
		<polygon class="st28" points="319.7,25.1 277.8,59.8 189,0 286.9,0 		"/>
		<path class="st29" d="M287.6,3.7c-1.1-1.5-1.8-2.3-3-3.7h2.3l32.8,25.1l-25.1,20.8C297.4,31.6,301.1,22.4,287.6,3.7z"/>
		<path class="st30" d="M280.7,29.8c0.1-3.3,2.9-5.9,6.2-5.8c3.3,0.1,5.9,2.9,5.8,6.2c-0.1,3.3-2.9,5.9-6.2,5.8
			C283.2,35.8,280.6,33.1,280.7,29.8z"/>
		<path class="st30" d="M270.2,18.9c0.1-2.5,2.2-4.5,4.7-4.4c2.5,0.1,4.5,2.2,4.4,4.7c-0.1,2.5-2.2,4.5-4.7,4.4
			C272.1,23.5,270.1,21.4,270.2,18.9z"/>
	</g>
	<g>
		<path class="st31" d="M296.3,379.5l-36.4-28.6c0,0-28.3,11.4-17.4,37.3l46.6,24.2C283.4,393,296.3,379.5,296.3,379.5z"/>
		<path class="st32" d="M278.2,372.3l-46.6-13.5c0,0-17.3,19.7,6.5,39.2l52.6,6.1C275,388.7,278.2,372.3,278.2,372.3z"/>
		<path class="st33" d="M315.4,270.4c0.5-20.4,11-40.2,13-40.9c2-0.7,12.1,18,20,23.5C329.6,259.2,315.4,270.4,315.4,270.4z"/>
		<path class="st34" d="M318,268.3c0.4-14.5,7.8-28.6,9.2-29.1c1.4-0.5,8.6,12.8,14.2,16.7C328.1,260.4,318,268.3,318,268.3z"/>
		<path class="st33" d="M648.1,277.1c10.5,12.1,13,37.3-8.3,48.3l11.3,9.1C680.8,303.4,658.3,277.7,648.1,277.1z"/>
		<path class="st31" d="M322.3,400.9l-90.6-15.3c-15,18.3-19.6,42-16,69.9h106.5V400.9z"/>
		<path class="st3" d="M275.5,393l-43.8-7.4c-15,18.3-19.6,42-16,69.9h63.6L275.5,393z"/>
		
			<ellipse transform="matrix(0.9607 -0.2776 0.2776 0.9607 -16.2745 135.8517)" class="st18" cx="471.6" cy="125.4" rx="25.6" ry="31.3"/>
		
			<ellipse transform="matrix(0.9607 -0.2776 0.2776 0.9607 -15.701 137.128)" class="st25" cx="476.4" cy="124" rx="25.6" ry="31.3"/>
		<path class="st26" d="M461.3,128.1c-2.3,4-4.1,8.1-5.6,12.2c5,8.1,12.6,13.5,20.7,14.5c0.1-6,0.8-12.4,2.3-19
			c3-13.6,8.5-25.3,14.7-32.8c-0.6-0.7-1.3-1.4-2-2.1C480.6,104.4,469.3,114.2,461.3,128.1z"/>
		<path class="st35" d="M596.3,455.5H312.7c0,0-56.9-81.8-12-163.7C345.6,210,478.5,183,569.4,234.9
			C660.3,286.8,699.2,388.6,596.3,455.5z"/>
		<path class="st36" d="M642.5,348.2c19.2-32.9-20.6-89-86.4-120.2c-65.8-31.2-132.8-25.6-151.9,7.3
			c-19.2,32.9,18.7,84.9,84.5,116.1C554.5,382.6,623.4,381.2,642.5,348.2z"/>
		<path class="st33" d="M657,349.3c-0.2,8.2-1.6,16.3-4.3,24.2c-20.6,60-107.5,84.1-194.1,53.8C371.9,397,318.3,323.9,338.9,263.8
			c3.2-9.4,8.1-17.9,14.3-25.5c-22.1,13.6-40.5,31.5-52.5,53.4c-44.9,81.8,12,163.7,12,163.7h283.7C643.7,424.7,661,386.6,657,349.3
			z"/>
		
			<ellipse transform="matrix(0.5993 -0.8005 0.8005 0.5993 -102.3212 646.2269)" class="st37" cx="594.4" cy="425.3" rx="35" ry="18.8"/>
		
			<ellipse transform="matrix(0.9033 -0.4289 0.4289 0.9033 -138.6471 189.8908)" class="st38" cx="352" cy="402.6" rx="36.7" ry="49"/>
		<path class="st39" d="M449.2,280c2.4-20.6-5.4-41.2-7.2-42.1c-1.9-0.9-14.6,17.4-23.2,22.4C436.6,267.8,449.2,280,449.2,280z"/>
		<path class="st35" d="M445.3,277.4c1.7-15.1-3.9-30.2-5.3-30.8c-1.4-0.6-10.7,12.7-17,16.4C436.1,268.5,445.3,277.4,445.3,277.4z"
			/>
		<path class="st40" d="M432.2,348.8c-5.7-13.8-16.8-2.9-15.7,11.8C417.3,349.2,426.1,341.4,432.2,348.8z"/>
		<path class="st40" d="M307.7,353.2c-2.3-18.6-10.2-14.3-10.7-0.9C299,345.3,304.7,343.9,307.7,353.2z"/>
		<path class="st40" d="M365,407.2c-1.1-4.3-1.5-8.5-2.8-8.3c-1.3,0.2-1.5,3.8-0.4,8.1c1.1,4.3,3,7.6,4.3,7.5
			C367.4,414.3,366.1,411.5,365,407.2z"/>
		<path class="st40" d="M334.5,408.6c-1.1-4.3-1.6-8.4-2.9-8.2c-1.3,0.2-1.5,3.8-0.4,8.1c1.1,4.3,3,7.6,4.3,7.5
			C336.9,415.8,335.6,412.9,334.5,408.6z"/>
		<path class="st40" d="M394.3,441.8c35-3.5,54.7-41,54.7-52.7h-3.7C434.5,415.5,419.5,435.5,394.3,441.8z"/>
		
			<ellipse transform="matrix(0.7383 -0.6744 0.6744 0.7383 -34.9594 482.906)" class="st41" cx="604.9" cy="286.5" rx="16.1" ry="44"/>
		
			<ellipse transform="matrix(0.3884 -0.9215 0.9215 0.3884 114.1064 650.9435)" class="st41" cx="547.4" cy="239.5" rx="9.1" ry="20.4"/>
		<path class="st40" d="M468.4,208.4c-7.1-0.1-14.1,0.1-21.1,0.6c-12.3,4.5-22.8,11.7-31.3,22h16C439,220.2,452,213.2,468.4,208.4z"
			/>
		<g>
			<defs>
				<path id="SVGID_1_" d="M469.7,208.4c11.3,0.2,22.6,1.3,33.7,3.2c3-5.7,4.7-12.1,4.7-18.9c0-24.1-21.6-43.6-48.3-43.6
					c-26.7,0-48.3,19.5-48.3,43.6c0,15.2,8.6,28.6,21.6,36.4C440.2,220,453.5,212,469.7,208.4z"/>
			</defs>
			<clipPath id="SVGID_00000047768860438109180520000017285310119092418446_">
				<use xlink:href="#SVGID_1_"  style="overflow:visible;"/>
			</clipPath>
			
				<ellipse transform="matrix(0.9607 -0.2776 0.2776 0.9607 -41.1339 135.8343)" style="clip-path:url(#SVGID_00000047768860438109180520000017285310119092418446_);fill:#E8A838;" cx="459.1" cy="213.2" rx="25.6" ry="31.3"/>
			
				<ellipse transform="matrix(0.9607 -0.2776 0.2776 0.9607 -40.7533 136.997)" style="clip-path:url(#SVGID_00000047768860438109180520000017285310119092418446_);fill:#F4D240;" cx="463.4" cy="212.4" rx="25.6" ry="31.3"/>
			<g style="clip-path:url(#SVGID_00000047768860438109180520000017285310119092418446_);">
				<path class="st18" d="M456.7,203.5c-0.2,0-0.3,0-0.4-0.1c-0.1-0.1-0.1-0.2-0.2-0.4c-0.2-0.8-0.3-1.4-0.3-1.6
					c0-0.2,0.2-0.5,0.7-0.7c2-0.4,4-1.4,6-3c0.3-0.1,0.5-0.2,0.7-0.2c0.5-0.1,0.7,0.1,0.8,0.3c0.3,1.6,0.5,2.6,0.7,3.8l0.4,2.9
					l0.5,2.2l0.5,1.9c0.1,0.5,0.4,1.4,0.6,2.8c0.3,1.1,0.9,4.4,1.4,5.7c2.4-0.3,3.7-0.3,3.7-0.1l0.4,1.3c0.1,0.4-0.1,0.7-0.6,0.8
					c-1,0.1-1.7,0.2-2.2,0.2c-0.5,0-1.1,0.1-1.7,0.2c-1,0.2-2.3,0.5-3.9,0.8c-0.4,0.1-0.8,0.1-1.2,0.2c-0.7,0.1-1.5,0.3-2.4,0.5
					c-0.2,0-0.4-0.3-0.6-0.8c0-0.1-0.1-0.2-0.1-0.3c-0.1-0.4,0-0.7,0.2-0.8c1.3-0.4,2.4-0.8,3.2-1.2c1-0.1,1.4-0.5,1.3-0.9
					c-0.1-0.5-0.2-0.9-0.2-1.4c-0.1-0.4-0.2-1-0.4-1.8l-0.6-2.8c-0.2-1.1-0.4-2.1-0.7-2.9c-0.1-0.5-0.2-1-0.4-1.6
					c-0.1-0.5-0.2-1.1-0.3-1.6l-0.5-3.1l-3.4,1.5C457.3,203.3,456.9,203.5,456.7,203.5z"/>
			</g>
			<path style="clip-path:url(#SVGID_00000047768860438109180520000017285310119092418446_);fill:#E8A838;" d="M483.9,206.5
				c-4-13.8-16.4-22.4-27.7-19.1c-11.3,3.3-17.3,17.1-13.3,30.9c4,13.8,16.4,22.4,27.7,19.1C481.9,234.2,487.9,220.3,483.9,206.5z
				 M469.5,235.6c-10.5,3-22-4.9-25.6-17.7c-3.7-12.8,1.8-25.6,12.3-28.6c10.5-3,22,4.9,25.6,17.7
				C485.4,219.7,479.9,232.5,469.5,235.6z"/>
		</g>
		<path class="st45" d="M484.3,434.5h-21.6c-4.8,0-8.7,3.9-8.7,8.7v12.3h39v-12.3C493,438.4,489.1,434.5,484.3,434.5z"/>
		
			<ellipse transform="matrix(0.9277 -0.3733 0.3733 0.9277 -113.6981 260.5237)" class="st18" cx="615.7" cy="423.8" rx="20.8" ry="33.1"/>
		
			<ellipse transform="matrix(0.9277 -0.3733 0.3733 0.9277 -112.9507 261.7953)" class="st25" cx="619.4" cy="422.5" rx="20.8" ry="33.1"/>
		<polygon class="st31" points="283.4,451.5 222.3,450.5 284.9,448 		"/>
		<polygon class="st31" points="282.9,440.2 239.5,437.8 283.9,436.8 		"/>
		<polygon class="st31" points="217.4,417.5 268.8,421.9 216.1,420.9 		"/>
		<path class="st18" d="M496.9,118.1c-4-13.8-16.4-22.4-27.8-19.1c-11.3,3.3-17.3,17.1-13.3,31c4,13.8,16.4,22.4,27.8,19.1
			C495,145.8,500.9,131.9,496.9,118.1z M481.9,146.7c-10.1,2.9-21.3-4.7-24.8-17.1c-3.6-12.4,1.7-24.8,11.9-27.7
			c10.1-2.9,21.3,4.7,24.8,17.1C497.3,131.3,492,143.8,481.9,146.7z"/>
		<g>
			<path class="st18" d="M470.5,118.9c-0.2,0-0.3,0-0.3-0.1c-0.1-0.1-0.1-0.2-0.1-0.4c-0.2-0.8-0.2-1.4-0.2-1.6
				c0.1-0.2,0.3-0.5,0.7-0.7c1.8-0.5,3.7-1.5,5.7-3.1c0.3-0.1,0.5-0.2,0.7-0.3c0.4-0.1,0.7,0.1,0.7,0.3c0.2,1.6,0.3,2.5,0.5,3.7
				l0.2,2.9l0.3,2.2l0.4,1.9c0.1,0.5,0.3,1.4,0.5,2.7c0.2,1.1,0.6,4.4,1.1,5.6c2.3-0.3,3.4-0.4,3.5-0.2l0.3,1.3
				c0.1,0.4-0.1,0.7-0.6,0.8c-0.9,0.2-1.6,0.3-2.1,0.3c-0.5,0-1,0.1-1.6,0.2c-0.9,0.2-2.1,0.5-3.6,0.9c-0.3,0.1-0.7,0.1-1.1,0.2
				c-0.7,0.1-1.4,0.3-2.2,0.5c-0.2,0-0.4-0.2-0.6-0.8c0-0.1-0.1-0.2,0-0.3c-0.1-0.4,0-0.7,0.2-0.8c1.2-0.4,2.2-0.9,3.1-1.2
				c0.9-0.2,1.4-0.5,1.3-1c0-0.5-0.1-0.9-0.2-1.3c-0.1-0.4-0.1-1-0.3-1.8l-0.4-2.8c-0.1-1.1-0.3-2.1-0.5-2.9c-0.1-0.5-0.2-1-0.3-1.5
				c-0.1-0.5-0.1-1.1-0.2-1.6l-0.4-3l-3.2,1.5C471,118.7,470.7,118.9,470.5,118.9z"/>
		</g>
		<g>
			<path class="st18" d="M617.1,421.6c0.4-0.7,1-1.6,2.3-2.4c2.5-1.2,4.6-0.4,6.1,1.9c0.6,1,1,1.8,1.1,2.2c0.1,0.4,0.3,0.8,0.4,1.3
				c0.6,2,2.8,7.8-1.6,10.2c-5.5,3-8-4.2-8.6-5.2c-0.2-0.3-0.3-0.6-0.4-0.8c-0.3-0.6-0.3-0.9-0.1-1c0.3-0.2,0.9-0.5,1.5-0.9
				c0.5-0.3,0.6,0,0.8,0.5c0.1,0.2,0.2,0.4,0.3,0.6c0.5,0.8,1.6,1.3,3,0.5c0.7-0.4,1.1-1.1,1.4-2.2c0.3-1.2,0.1-1.7-0.5-3
				c-0.7-1.2-1.5-1.7-2.5-1.3c-0.7,0.5-1.2,0.9-1.5,1.2c-0.3,0.3-0.5,0.7-0.7,1.2c-0.1,0.5-0.3,0.8-0.5,0.8c-1.1,0.6-2,1-2.2,1.2
				c-0.2,0.1-0.5-0.4-0.7-0.9c-0.2-0.5-0.4-1.2-0.7-1.9c-0.5-1.2-3.2-6.4-4-8.1c-0.5-1.2-0.1-1.7,0.4-2c0.3-0.1,0.5-0.2,0.8-0.3
				c0.9-0.5,2-1.2,2.9-1.8c0.3-0.2,0.6-0.4,1.1-0.6c1.2-0.6,2.7-1.4,3.4-1.8c0.7-0.4,0.9-0.1,1.1,0.3c0.1,0.2,0.1,0.4,0.2,0.5
				c0.3,0.6,1,2.3,1.3,3c0.2,0.5,0,0.8-0.4,1c-0.2,0.1-0.5,0.2-0.7,0.3c-0.2,0-0.4,0.2-0.7,0.3c-1.3,0.7-3.6,2.1-4.4,2.5
				c-1,0.5-0.9,1.1-0.5,1.7c0.2,0.3,0.5,1.2,0.9,2c0.2,0.4,0.3,0.7,0.4,1l0.6,1.3C616.8,422.4,617,421.9,617.1,421.6z"/>
		</g>
		<path class="st18" d="M637.5,422.5c-3.3-14.6-14.1-26.3-24.1-26.3c-10,0-15.4,11.8-12,26.3c3.3,14.6,14.1,26.3,24.1,26.3
			C635.4,448.8,640.8,437,637.5,422.5z M625.1,447.9c-9.5,0-19.7-11.2-22.9-25c-3.2-13.8,2-25,11.4-25c9.5,0,19.7,11.2,22.9,25
			C639.7,436.7,634.6,447.9,625.1,447.9z"/>
		<path class="st14" d="M611.2,391.9c12,0,25,14.2,29,31.7c2.5,10.7,1,20.2-3.3,25.9c5-5.6,6.9-15.6,4.3-27.1
			c-4-17.5-17-31.7-29-31.7c-4.7,0-8.5,2.1-11.2,5.8C603.6,393.6,607,391.9,611.2,391.9z"/>
	</g>
	<g>
		<path class="st23" d="M782.2,157.1c0.1-0.3-0.4-0.6-1.1-0.8c-0.7-0.2-1.3-0.1-1.4,0.1c-0.1,0.2,0.4,0.6,1.1,0.8
			C781.5,157.4,782.1,157.4,782.2,157.1z"/>
		<path class="st23" d="M781.6,157.8c0.1-0.2-0.4-0.6-1.1-0.8c-0.7-0.2-1.3-0.1-1.4,0.1c-0.1,0.2,0.4,0.6,1.1,0.8
			C780.9,158.1,781.5,158,781.6,157.8z"/>
		<path class="st23" d="M780.8,158.6c0.1-0.3-0.4-0.6-1.1-0.8c-0.7-0.2-1.3-0.1-1.4,0.1c-0.1,0.3,0.4,0.6,1.1,0.8
			C780.2,158.9,780.8,158.9,780.8,158.6z"/>
		<g>
			<path class="st23" d="M775.9,154.9c2,0.8,4.3,1,4.6,1.7c0.3,0.7-1.2,3.1-3,1.8c-1.8-1.2-3.2-2.7-3.2-2.7L775.9,154.9z"/>
			<path class="st23" d="M775.5,155.2c2.3-0.2,5.7-2.3,6-1.9c0.3,0.3-3.5,3.1-4.2,3.1C776.5,156.3,774.6,155.2,775.5,155.2z"/>
		</g>
		<path class="st46" d="M736.3,150.4c-13.9,10-23.4,7.5-27.9,5.3c-4.4-2.2-5.6-15.5-5.6-15.5s7.3-45.4,24.8-33.5
			C746.1,100.9,736.3,150.4,736.3,150.4z"/>
		<path class="st24" d="M733.3,290.6c0,0,16.9-85.2,13.7-109.2c-1.3-10.2-9.4-23.1-9.4-23.1l-9,3.5c0,0-12.1,15.2-12.2,29.4
			C716.3,212.4,731.4,283.6,733.3,290.6z"/>
		<path class="st23" d="M723.3,213.7l10.5-3.2l-0.5,77.7c0.1,0.3,0.1,0.6,0.2,0.8l3.1-81.6l10-3.2c0.8-9.5,1.1-17.6,0.4-22.8
			c-1.3-10.2-9.4-23.1-9.4-23.1l-9,3.5c0,0-13.5,14.4-13.5,28.6c0,14.7,8.8,57.5,14.2,82.1L723.3,213.7z"/>
		<path class="st47" d="M716.9,212.8l18.1-4.4l0.6-3.2l12.1-3.5c0,0,5.8-22.7-7.6-39.2l-17.4,3.3
			C722.8,165.8,708.7,181.9,716.9,212.8z"/>
		<g>
			<path class="st48" d="M745.6,171.7c-2.5-6.1-4.2-7.6-5.5-9.2l-17.4,3.3c0,0-14,16.1-5.9,47.1l4.8-1.2c-0.6-3.9-0.6-8.5-0.9-13.3
				C719.7,183.1,728.8,170.8,745.6,171.7z"/>
			<path class="st48" d="M738.3,187.8c-0.2,0-1.6,0-1.8,0c0.7,4.8-0.7,15.2-1,17.4l1-0.3C736.3,201.1,737.8,189.2,738.3,187.8z"/>
		</g>
		<path class="st49" d="M747.9,155.1c-6.4-2.5-20-15.8-22.3-18.9c-2.4-3.2-0.9-8.6,7.7-0.9c8.1,7.3,16,13.5,17.4,14.2
			C752.2,150.4,751,156.4,747.9,155.1z"/>
		<path class="st50" d="M749.5,152.2c-6.4-2.5-20-15.8-22.3-18.9c-0.4-0.6-0.7-1.2-0.9-1.8c-2.2,0.1-2.2,2.9-0.7,4.8
			c2.3,3.1,15.8,16.3,22.3,18.9c2,0.8,3.2-1.3,3.4-3.1C750.8,152.3,750.2,152.4,749.5,152.2z"/>
		<path class="st49" d="M742,164.7c-10.5,5-21.4,3.7-21.4,3.7s1.7-16-1.8-32l9.1,0.8C733.4,149.8,738.3,156,742,164.7z"/>
		<path class="st50" d="M730.4,155.3c2.9-1.2,7.3,2.9,10.4,6.7c-3.5-7.4-8-13.5-13-24.8l-9.1-0.8c3.5,16.1,1.8,32,1.8,32
			s2.8,0.3,7,0C726.8,163.1,727.3,156.6,730.4,155.3z"/>
		<path class="st49" d="M727.5,132c5.6,5.9,12,18.5,10.8,19.5c-0.9,0.7-14.4,2-15.3,1.3c-0.8-0.7-6.4-19.4-5.9-20.4
			C717.5,131.3,726.6,131.1,727.5,132z"/>
		<path class="st50" d="M725.4,151.4c-0.7-0.6-5.5-14.8-6.7-19.7c-0.9,0.2-1.5,0.4-1.6,0.6c-0.4,1.1,4.8,20.5,5.7,21.2
			c0.8,0.7,14.6-1.4,15.5-2.1c0.2-0.1,0.2-0.4,0.1-0.9C734.3,151.3,726,152,725.4,151.4z"/>
		<path class="st49" d="M696.7,154.3c2.8-6.3,16.7-19.6,19.9-21.8c3.3-2.2,8.4-0.2,0.4,8.1c-7.6,7.8-14.1,15.5-14.9,16.9
			C701.3,158.8,695.4,157.4,696.7,154.3z"/>
		<path class="st50" d="M718.6,137.7c-7.9,7.5-14.7,14.9-15.5,16.3c-0.7,1.1-4.5,0.2-5.3-1.7c-0.4,0.7-0.8,1.3-1.1,1.9
			c-1.4,3.1,4.6,4.5,5.4,3.1c0.8-1.4,7.6-8.5,15.2-16.3c2.1-2.2,2.9-4.4,3.5-5.8C720.3,136.1,719.5,136.8,718.6,137.7z"/>
		<path class="st51" d="M755.4,153.4c0.6-2.1-1.4-4.2-4.5-4.6c-3.1-0.4-6.2,1.1-6.8,3.2c-0.6,2.1,1.4,4.2,4.5,4.6
			C751.8,157,754.8,155.6,755.4,153.4z"/>
		<path class="st24" d="M751.8,156.6c7.5,1.1,25.8-0.5,25.8-0.5l0.5-0.8c0,0-25.5-8.5-30-4.7C743.6,154.4,750.3,156.4,751.8,156.6z"
			/>
		<path class="st23" d="M753.5,153.6c-1-0.2-4.3-1.5-5-3.3c-0.2,0.1-0.3,0.2-0.4,0.3c-4.5,3.8,2.2,5.8,3.7,6
			c7.5,1.1,25.8-0.5,25.8-0.5l0.4-0.6C772.6,155.3,759.3,154.9,753.5,153.6z"/>
		<path class="st52" d="M734,291.6h-8.5c0,0,6.4-3.9,7.6-3.9C734.3,287.6,734,291.6,734,291.6z"/>
		<path class="st52" d="M732.9,291.6h6c0,0-4.5-3.9-5.4-3.9C732.7,287.6,732.9,291.6,732.9,291.6z"/>
		<g>
			<path class="st53" d="M799.9,174.3c-3.3-6.4-8.2-11.8-13.4-17.1l-11.2,10.2c-1.3,1.2-1.5,3.3-0.4,4.7l6.7,8.5
				c1,1.3,2.9,1.7,4.4,0.9L799.9,174.3z"/>
			<polygon class="st53" points="811.5,185.5 795.9,170.1 791.7,173.4 810.4,186.4 			"/>
			<path class="st53" d="M780.4,157.4l1.1-1c0.7-0.6,1.8-0.6,2.3,0.2l2.3,2.9l1.3-1l-3.6-4.6c-0.8-1-2.4-1.2-3.3-0.2L779,155
				c-3.1,3-3.8,7.6-1.7,11.4l1.8-1.4C777.8,162.4,778.4,159.4,780.4,157.4z"/>
			<path class="st54" d="M790.6,178l8.4-4.4l-12-15.3l-1.4,1.3c-1.2,1.8-2.1,4-2.4,6.3C782.4,171.9,785.6,176.9,790.6,178z"/>
			<polygon class="st54" points="794.2,172.7 810.1,185.1 810.6,184.8 796.5,170.9 			"/>
			<path class="st55" d="M792.9,164.9c-3.4-4.4-5.4-6-6-6c-0.6,0.1,0.3,1.9,3.7,6.2c3.4,4.4,6.7,7.9,7.3,7.8
				C798.5,172.9,796.3,169.2,792.9,164.9z"/>
			<path class="st54" d="M785.8,156.3l-2-2.6c-0.8-1-2.4-1.2-3.3-0.2L779,155c-1.4,1.3-2.3,3-2.7,4.8c0.7,0.3,1.5,0.5,2.4,0.5
				c0.3-1.1,0.9-2.1,1.8-2.9l1.1-1c0.7-0.6,1.8-0.6,2.3,0.2l0.9,1.2C785.2,157.3,785.5,156.8,785.8,156.3z"/>
		</g>
		<polygon class="st50" points="738.3,167.3 734.9,168.1 735.2,170.5 738.7,169.7 		"/>
		<path class="st48" d="M737.4,187.8c0,0-0.9,0.4-4.5-1.7l-0.6,0.1c4.2,3.1,5.2,2.6,5.2,2.6s2.8-1,4.9-4.6l-0.3,0.1
			C740,187,737.4,187.8,737.4,187.8z"/>
		<path class="st51" d="M706.2,156.3c0.3-2-1.9-4.1-5-4.6c-3.1-0.5-5.9,0.7-6.2,2.7c-0.3,2,1.9,4.1,5,4.6
			C703.1,159.6,705.9,158.3,706.2,156.3z"/>
		<path class="st24" d="M700.2,160.4c6.2,4.4,23.2,11.3,23.2,11.3l0.8-0.5c0,0-18.8-19.2-24.5-17.9
			C693.9,154.7,698.9,159.5,700.2,160.4z"/>
		<path class="st23" d="M704.2,159.2c-0.8-0.7-3.4-3.7-2.9-5.8c-0.7-0.2-1.3-0.2-1.7-0.1c-5.7,1.3-0.7,6.2,0.6,7.1
			c6.2,4.4,23.2,11.3,23.2,11.3l0.1-0.1C718.6,168.9,708.4,162.9,704.2,159.2z"/>
		<path class="st51" d="M718,131.8c1.8,1.8,4.3,3,6.5,3c2.1,0,3.3-1.2,3.2-2.8c0,0-0.1-0.3-0.1-0.4
			C726.8,130.9,720.3,131.2,718,131.8z"/>
		<path class="st56" d="M720,131.5l0.1-10.6l4.8,0.9l1.4,9.7C726.3,134.2,724.4,134.5,720,131.5z"/>
		<path class="st24" d="M729.9,130.3c-6.3-0.4-9.4-5.2-10-7.9c-0.6-2.7,1.3-11.3,5.7-11.1C736.4,111.6,729.9,130.3,729.9,130.3z"/>
		<path class="st46" d="M718.6,125.2c7.6-5.5,12.1-13.7,5.9-16.3c-6.3-2.6-8.2,3.1-8,6.6C716.7,119,718.6,125.2,718.6,125.2z"/>
		<path class="st24" d="M721.7,121c-0.3-1.5-1.3-2.5-2.1-2.3c-0.8,0.2-1.3,1.5-0.9,3c0.3,1.5,1.3,2.5,2.1,2.3
			C721.6,123.9,722,122.5,721.7,121z"/>
		<path class="st56" d="M721.1,121.2c-0.2-0.8-0.7-1.4-1.2-1.3c-0.5,0.1-0.7,0.9-0.5,1.7c0.2,0.8,0.7,1.4,1.2,1.3
			C721,122.8,721.3,122.1,721.1,121.2z"/>
		<path class="st24" d="M721,122c-0.1-0.6-0.5-1-0.9-1c-0.3,0.1-0.5,0.6-0.4,1.2c0.1,0.6,0.5,1,0.9,1
			C720.9,123.2,721.1,122.7,721,122z"/>
		<g>
			<path class="st57" d="M828.1,220.9L828.1,220.9c-0.4,0-0.8-0.4-0.7-0.9c0.6-15.2-7.5-25.6-14.5-31.7l0.6-0.7
				c7.2,6.2,16.2,17,15.6,32.5C829,220.6,828.5,221,828.1,220.9z"/>
		</g>
		<g>
			<path class="st57" d="M818.9,213.1L818.9,213.1c-0.5-0.1-0.9-0.6-0.8-1.1c2.4-11.9-2.3-20-6.8-24.8l0.7-0.7
				c4.6,5,10.5,13.5,8,25.8C819.9,212.9,819.4,213.2,818.9,213.1z"/>
		</g>
		<g>
			<path class="st57" d="M824,226.3L824,226.3c-0.4,0-0.7-0.4-0.7-0.9c2.2-18.2-4.9-30.6-11.3-37.8l0.7-0.6
				c6.5,7.4,14.4,20.1,12.1,38.7C824.8,226.1,824.4,226.4,824,226.3z"/>
		</g>
		<path class="st57" d="M823.7,231.4c-0.9,2.6-1.1,5.4,0,4.9C825.5,235.7,823.7,231.4,823.7,231.4z"/>
		<path class="st57" d="M829.4,233.7c-0.8,2.6-0.8,5.4,0.3,4.9C831.5,237.8,829.4,233.7,829.4,233.7z"/>
		<path class="st57" d="M817.9,219c-1.4,2.4-2.1,5-0.9,4.8C818.9,223.5,817.9,219,817.9,219z"/>
		<g>
			<path class="st24" d="M720.9,168.4c1.7,1.3,3.9,2.1,4,2.8c0.1,0.8-2,2.6-3.4,1c-1.4-1.7-2.4-3.5-2.4-3.5L720.9,168.4z"/>
			<path class="st24" d="M721.3,168.4c2.1,1,6.1,0.9,6.2,1.4c0.1,0.5-4.6,0.9-5.2,0.5C721.7,169.9,720.5,168,721.3,168.4z"/>
			<path class="st24" d="M722.6,169c2.3,3,5.7,3.6,5.8,4c0.2,0.4-2.5,0.2-4.3-1.2C722.4,170.4,722.6,169,722.6,169z"/>
			<path class="st24" d="M721.8,169.5c2,3.2,5.7,4.5,5.9,4.9c0.1,0.4-2.8-0.4-4.4-2C721.9,170.9,721.8,169.5,721.8,169.5z"/>
			<path class="st24" d="M720.5,169.9c2.3,3.4,5.1,4.5,5.2,4.8c0.1,0.3-2-0.3-3.4-1.7C720.7,171.4,720.5,169.9,720.5,169.9z"/>
		</g>
		<g>
			<path class="st58" d="M727,120c0.1-0.8-0.3-1.4-0.8-1.4c-0.5,0-0.9,0.6-1,1.4c0,0.8,0.3,1.4,0.8,1.4
				C726.5,121.3,727,120.7,727,120z"/>
			<path class="st58" d="M731.6,119.7c0-0.6-0.3-1.2-0.7-1.2c-0.4,0-0.8,0.5-0.8,1.1c0,0.6,0.3,1.2,0.7,1.2
				C731.2,120.9,731.5,120.4,731.6,119.7z"/>
			<path class="st59" d="M724.1,118.3l-0.1-0.2c-0.2-0.3,0-0.6,0.3-0.8l2.4-1.3c0.3-0.2,0.7-0.1,0.8,0.2l0.1,0.1L724.1,118.3z"/>
			<path class="st60" d="M728.9,120.5c0,0-0.1,0.1-0.2,0.4c0.6,1.1,1.3,3.1-0.6,2.8c0,0,0,0.1,0,0.2
				C731.3,124.7,729.4,121.2,728.9,120.5z"/>
			<path class="st61" d="M729.9,125.3c0,0.1,0,0.2-0.1,0.4c-0.3,1.3-1.4,2.1-2.2,1.9c-0.8-0.2-1.1-1.1-0.9-2.4L729.9,125.3z"/>
			<path class="st59" d="M729.5,116.4L729.5,116.4c0.1-0.4,0.3-0.5,0.6-0.3l1.8,1.1c0.2,0.1,0.4,0.5,0.3,0.7l0,0.1L729.5,116.4z"/>
			<path class="st62" d="M729.4,126.2c0.1-0.1,0.2-0.3,0.2-0.5c0-0.1,0-0.2,0-0.3l-2.8-0.2c-0.1,0.5,0,0.7,0.2,0.8L729.4,126.2z"/>
		</g>
		<path class="st24" d="M780.9,154.7c0.1-0.6-0.1-1.2-0.5-1.2c-0.3,0-0.6,0.5-0.7,1.1c-0.1,0.6,0.1,1.2,0.5,1.2
			C780.5,155.8,780.8,155.3,780.9,154.7z"/>
		<path class="st24" d="M781.1,157.1c0.6,0.1,1.2,0,1.2-0.2c0.1-0.2-0.4-0.5-1-0.7c-0.6-0.1-1.2,0-1.2,0.2
			C780,156.7,780.4,157,781.1,157.1z"/>
		<path class="st24" d="M780.3,158c0.6,0.1,1.2,0,1.2-0.2c0.1-0.2-0.4-0.5-1-0.7c-0.6-0.1-1.2,0-1.2,0.2
			C779.3,157.6,779.7,157.9,780.3,158z"/>
		<path class="st24" d="M779.6,158.7c0.6,0.1,1.2,0,1.2-0.2c0.1-0.2-0.4-0.5-1-0.7c-0.6-0.1-1.2,0-1.2,0.2
			C778.5,158.3,779,158.6,779.6,158.7z"/>
	</g>
	<g>
		<g>
			<path class="st24" d="M242.7,300c-1.3-0.1-6.9,2.1-9.9,3.7l2.1,8.3c5.7,0.1,10.6-4.5,10.3-5.8C244.8,305,244,300.1,242.7,300z"/>
			<path class="st24" d="M236.8,298.2c-0.5,0.2-2.5,3.7-7.2,6.2l4.5,1.9c1.3-0.7,4.7-5.7,4.7-6.7
				C238.8,298.5,237.6,297.9,236.8,298.2z"/>
			<path class="st24" d="M246.3,298.2c-0.5,0.1-4.3,1.3-8.1,3.1l2.5,2.2c0,0,6.2-2.7,6.6-3.5C247.8,299.1,247,298.1,246.3,298.2z"/>
			<path class="st24" d="M248.8,299c-0.5-0.1-4.3,2.5-7.8,4.9l3,1.6c0,0,5.7-3.8,5.9-4.7C250.2,300,249.3,299.1,248.8,299z"/>
			<path class="st24" d="M239.3,311.2c5.6-0.7,11.2-6,11.3-6.6c0.1-0.6-0.2-2.3-1-1.9c-0.8,0.4-4.3,3.1-5.3,3.2
				c-1,0.1-7.3,0-7.3,0.1C237,306.2,239.3,311.2,239.3,311.2z"/>
		</g>
		<polygon class="st24" points="235.2,302.4 210,309.6 205.3,328.6 231.9,314.8 238.2,305.9 		"/>
		<path class="st23" d="M227.3,313.4c-7.9,1.3-13.4-1-12.3-5.2c0,0,0,0,0-0.1l-5,1.4l-4.7,19l26.6-13.8l2.5-3.4
			C232.2,312.3,229.8,313,227.3,313.4z"/>
		<polygon class="st63" points="178.1,316.3 213.2,307.6 210.9,327.9 188,338.8 		"/>
		<polygon class="st64" points="187.6,331.8 188,340.5 210.9,327.9 211.4,323.1 		"/>
		<path class="st24" d="M240.5,299.2c-1.6-1-3.3-1.4-3.9-0.7c-0.6,0.7,0.3,2,1.9,3.1s2.2,0.7,2.8,0.1
			C241.8,301,242,300.2,240.5,299.2z"/>
	</g>
	<g>
		<path class="st65" d="M304.2,428.9c0,0.7-0.2,1.6-0.7,2.5c-2.5,4.4-15.9,26.5-45.8,26.5c-30.1,0-58.9-36.3-58.9-84.2
			c0-47.9,28.1-80.5,53.8-80.5c25.5,0,38.2,16.1,40.7,19.8c1.4,1.8,2.5,3.2,2.5,4.8c0,0.9-0.7,2.1-2.5,3.7
			c-4.4,3.5-11.7,9.9-15.2,14.5c-2.5,3.2-4.8,6-7.1,6c-1.2,0-2.3-0.7-3.7-2.3c-4.4-4.8-8.1-9.7-13.8-9.7
			c-10.1,0-24.8,11.7-24.8,49.5c0,37.5,20.7,44.9,27.1,44.9c6.4,0,13.6-6.4,16.1-9c1.6-1.6,2.3-2.8,3.5-2.8c0.7,0,1.6,0.2,2.8,0.9
			l19.6,10.8C301.2,425.9,304.2,426.6,304.2,428.9z"/>
		<path class="st65" d="M379.6,356.4c3.2,0,6.9-0.2,9-0.5c1.4-0.2,2.8-0.2,4.4-0.2c1.6,0,3.2,0,4.8,0.2l5.3,0.5l0.7-6.9l0.7-11
			c0-5.5,0.9-36.1,0.9-40.3c0.2-4.4,0.7-5.8,4.1-6c3.5,0,7.6-0.7,12.9-1.4c1.8-0.2,4.1-0.2,6.7-0.2c4.4,0,9,0.2,12.2,0.7
			c4.6,0.7,3.5,1.6,4.1,5.5c0,3.9-1.6,26.9-1.6,34.5c0,7.4-2.8,32.9-2.8,41.9c0,9.2,0.5,36.1,0.5,45.6c0,9.2,0.2,27.1,0.9,31.5
			c0,0.2,0,0.5,0,0.5c0,4.4-2.8,3.5-4.6,3.5c-0.9-0.2-2.3-0.5-4.6-0.5c-1.6,0-3.5,0.2-6,0.5c-6.4,0.7-16.3,0.7-20.7,0.7
			c-0.2,0-0.5,0-0.5,0c-3.9,0-3.2-2.3-3.2-5.5c0-3.2-0.2-24.4-0.9-32.7c-0.2-4.4-0.5-11.3-0.5-17c-0.2-3.5-0.2-6.9-0.2-10.6h-6.7
			c-3.7,0-7.8,0.2-9.9,0.2c-1.2,0-2.5,0.2-4.1,0.2c-1.4,0-3-0.2-4.6-0.2c-1.6,0-3.5,0-5.5-0.2l-0.7,14.5c-0.7,8.1-0.7,16.6-0.7,20.9
			c0,3.5,0,7.6,0,11.7c0,6.2,0,12.4,0.5,15c0.7,4.6-2.8,3.9-6.2,3.9c-3.5-0.2-9.4-0.9-13.3-0.9c-3.9,0.2-13.3,1.2-18.6,1.4
			c-4.8,0.7-5.3-3.5-5.3-6.4c0-3,0.7-19.6,0.7-25.5c0-4.4,0.5-22.8,0.5-36.1c0-5.1,0-9.2-0.2-11.7c-0.5-3.5-0.7-8.5-0.7-13.8
			c0-8.5,0.5-17.7,0.5-23c0-8.1,2.1-38.2,2.1-42.6c0-2.8,1.1-3.2,2.8-3.2c0.9,0,2.1,0.2,3,0.2c2.3,0.5,12.2,0.9,17.3,0.9
			c5.3,0,13.6-0.5,16.3-0.5h0.2c2.3,0,1.8,2.3,1.8,4.1s0.5,15.6,0.5,27.8c0,6.2-0.2,13.6-0.5,19.8l-0.5,10.6
			C370.6,356.2,375,356.4,379.6,356.4z"/>
		<path class="st65" d="M470,428c0.7-3.7,2.5-10.6,4.4-16.8c1.8-6.4,6.2-19.8,7.4-26.5c1.6-7.1,4.8-16.6,6-21.9
			c1.2-5.5,4.4-16.8,6.2-23.7c2.1-6.7,3.7-12.7,5.3-16.1c1.1-3.5,6-16.3,7.1-22.5c1.8-6.4,3.7-11,8.1-11c2.1,0,3.7,5.1,6.2,11.5
			c2.5,6,7.1,24.6,8.3,28.3c0.7,4.1,10.8,31.1,12,35.2c1.8,4.6,9.9,27.1,12.4,32.9c1.8,5.5,7.6,22.3,9.4,29.4
			c1.8,7.4,8.1,22.1,9.2,25.1c0.5,1.2,0.7,1.8,0.7,2.3c0,0.7-0.5,0.9-2.5,0.9h-12.9c-1.2,0-1.8-0.2-2.5-2.1c-1.1-3-1.8-5.8-2.5-8.3
			c-1.6-4.4-2.5-8.7-2.8-10.4c-0.7-3.5-3-12-4.8-15.6c-0.9-2.1-2.5-6.2-3.7-9.9l-2.1-6.7c-1.6-3.7-2.1-3.7-3.7-3.7
			c-2.5,0-4.8,0-7.1,0.2c-3.9,0.2-8.3,0.5-9.9,0.5c-1.8,0.2-9.7,0.2-17,0.2h-14c-0.2,0-0.2,0-0.5,0c-0.9,0-1.6,0.7-2.1,2.5l-0.5,2.3
			l-0.9,4.4c-1.2,3.7-4.6,21.6-5.3,23.5c-0.2,1.8-1.2,5.8-2.1,7.6c-0.7,0.9-1.4,4.4-2.3,7.4c-0.7,1.8-1.2,3.9-1.6,6
			c-0.7,1.8-0.5,2.1-2.5,2.1h-4.6c-1.6,0-1.8-0.9-1.2-3c0-0.2,0-0.7,0.2-1.1c0.2-0.7,0.2-1.6,0.9-3.2l2.1-8.5
			C467.5,436.7,469.3,432.3,470,428z M531.9,382c0-0.9-0.7-2.8-1.6-5.1c-1.8-4.1-5.8-19.1-8.3-26c-2.3-6.9-7.4-24.6-8.1-28.5
			c-1.2-4.1-3.5-12.2-4.6-12.2c-0.9,0-2.1,6-3.7,11.3c-1.2,5.1-6.9,25.8-8.7,31.3c-1.2,5.5-5.8,22.8-7.6,27.6
			c-0.2,0.7-0.5,1.2-0.5,1.6c0,3,4.4,2.3,6.4,2.3c2.3,0,10.4-0.5,13.3-0.5c1.4-0.2,4.4-0.5,7.8-0.5c4.6,0,9.9,0.2,12.4,0.2
			C531.2,383.6,531.9,383.1,531.9,382z"/>
		<path class="st65" d="M692.5,448.7c2.3,3.7,3.2,5.5,3.2,6.7c0,1.6-2.1,1.4-4.4,1.4c-3.7,0-22.1,0.7-26,0.7
			c-3.9,0-4.4-5.8-9.9-16.6c-3-5.5-9.7-18.6-15.9-31.1L627.8,387c0.7,10.8,1.2,20.7,1.8,29.7c0.7,15.2,1.6,31.5,2.3,34
			c0.2,0.9,0.2,1.6,0.2,2.3c0,3.7-2.3,4.6-6.7,3.9c-5.5-0.7-23.7,1.8-29.7,1.8c-4.4,0-5.1-1.8-5.1-5.1c0-1.4,0.2-3.2,0.2-5.3
			c0-5.3-1.8-36.3-1.8-55c0-5.8,0.2-10.4,0.7-12.7c0.9-4.6,1.2-17.9,1.2-32.4c0-16.8-0.5-35-0.9-42.1c-0.2-1.8-0.2-3.7-0.2-5.1
			c0-8.1,2.8-7.1,5.1-7.1c2.5,0,16.8-2.3,30.4-2.3c35.9,0,51.8,20.9,51.8,47.6c0,13.8-5.5,24.6-10.8,32.2c-3,4.4-6.7,8.5-10.6,12
			l16.1,29.2C680.3,428,689.3,444.1,692.5,448.7z M632.7,355c3.5-1.6,6.4-5.1,6.4-12.2c0-9.7-3.7-13.1-7.4-13.1
			c-1.6,0-3.2,0.7-4.4,1.8c-0.7,0.7,0.7,7.1,0,12.9c-0.7,3-0.9,5.5-0.9,8.1c0,0.7-0.2,1.4-0.2,2.1c0,0.7,0.2,1.2,0.2,1.8
			C628.8,356.4,630.8,356,632.7,355z"/>
		<path class="st65" d="M715.9,301.7c0-7.4,2.1-9,4.6-9c0.5,0,1.2,0,1.8,0.2c3.9,0.2,11.5-0.5,18.2,0.2c3.9,0.5,5.1,1.6,5.1,3.7
			c0,1.4-0.5,3-0.7,5.1c-0.7,5.3-2.5,18.4-2.8,40.3c-0.2,6-0.2,12.4-0.2,18.4c0,16.3,0.5,31.1,0.5,35c0,4.1,0.7,18.6,0.7,26.9
			c0,2.5,0,4.4-0.2,5.3c-0.2,0.9-0.2,3-0.2,5.3c0,6.4,0.5,16.1,0.5,19.6c0.2,4.4-3.5,4.6-6.9,4.4h-20.9c-5.3,0.2-5.3-3.2-5.5-7.1
			c-0.7-3.7,1.4-11.5,1.4-19.6c0-8.5,3-48.5,3-54.8c0-6,0.9-38,0.9-43.5c0-2.8,0.2-8.1,0.5-12.4l0.5-8.3V301.7z"/>
		<path class="st65" d="M856.7,384.7c0,19.1,3.7,52.9,3.7,61.9c0.7,9-6.7,7.1-20.2,7.1c-13.8,0-47.4-0.9-52-0.9
			c-1.8,0-2.3-1.8-2.3-4.6c0-3.9,0.9-9.7,0.9-15.4c-0.2-3-0.5-10.8-0.5-20.9c0-23.9,0.7-60.7,2.1-77.1c0.5-6,0.5-11.3,0.5-16.1
			c0-7.1-0.2-13.1-0.7-17c-2.5-0.2-3.5-0.2-4.1-0.2c-3.7,0-16.6,0.5-19.1,0.5c-1.6,0-1.8-1.6-1.8-3.7c0-1.6,0.2-3.2,0.2-5.1
			c0-2.5,0.9-3,2.5-3c1.4,0,3.2,0.5,5.5,0.5l49-0.2c12.9,0,53.8-0.7,59.4-0.7c4.8,0.2,3.7,3.5,3.7,7.4c0.2,4.4-1.8,5.3-5.5,5.3
			c-3.7,0-8.7,0.5-19.6,0.2h-0.9C857.4,318.9,856.7,368.8,856.7,384.7z"/>
		<path class="st65" d="M927.4,455.6c-4.6,0.2-7.4,0.2-8.5,0.2c-2.1,0-2.8-0.5-2.8-1.4c0-0.7,0.7-1.6,0.9-2.5
			c0.7-2.1,6.9-18.6,8.1-22.3c0.9-3.9,4.6-12.7,6.2-17c1.6-3.9,3.2-6.2,2.1-8.7c-1.2-2.5-4.1-14.5-6.7-20
			c-2.5-6.2-4.1-13.6-6.7-20.7c-2.5-6.9-15.9-45.6-17.7-51.5c-1.8-6.2-4.6-9.7-4.6-12.2c0-2.5,3.5-2.8,6.9-3
			c0.9-0.2,2.1-0.2,3.7-0.2c1.4,0,3.5,0,5.5,0.2c4.4,0,7.6,0,9.4,0.2c3.9,0.7,2.5,2.3,3.2,4.8c0.7,2.5,3.2,11,6,19.1
			c1.8,5.8,4.6,15.6,7.1,21.6c1.8,4.4,4.4,11.3,6.4,17.5c1.2,3.5,2.5,7.1,3.7,11l1.8-5.8c0.9-3.5,2.1-6.9,3.2-9.9l2.5-6.9l2.3-6
			c0.2-0.9,1.2-3,2.3-6c1.2-3.2,2.1-5.5,2.8-6.7c2.5-5.1,6.7-18.6,8.5-26.5c1.8-7.8,5.5-6.7,8.7-6.7c1.8,0,10.1-0.2,14.5,0.2
			c3.7,0.5,4.8,1.2,4.8,2.3c0,0.7-0.2,1.2-0.5,2.1c-1.2,2.8-5.8,17.9-9.4,26.7c-3.7,8.5-16.3,41.4-20,51.5
			c-3.5,10.6-20.5,50.8-21.4,54.8c-1.4,3.9-2.8,13.6-3.5,16.8c-0.7,3.2-1.8,4.8-3.7,4.6h-6.2C935.2,455.6,932.2,455.6,927.4,455.6z"
			/>
	</g>
	<g>
		<g>
			<path class="st24" d="M1105.2,387.6c-0.3-1.6-4.6-7.5-7.4-10.5l-9,5c1.7,6.7,8.5,11,9.8,10.3
				C1100.1,391.7,1105.5,389.2,1105.2,387.6z"/>
			<path class="st24" d="M1108.6,379.7c-0.5-0.4-5.4,0-11-3.2l1.1,5.7c1.5,0.9,8.8,1,9.9,0.4
				C1109.6,381.9,1109.3,380.2,1108.6,379.7z"/>
			<path class="st24" d="M1110.6,389.3c-0.4-0.4-4.3-3.4-8.7-6l-0.5,4c0,0,6.9,4.3,8,4.2C1110.7,391.4,1111.2,389.9,1110.6,389.3z"
				/>
			<path class="st24" d="M1108.2,394.5c0-0.6-4.2-4.3-8.1-7.6l-0.9,4c0,0,6.1,5.5,7.2,5.5C1107.5,396.4,1108.3,395.1,1108.2,394.5z"
				/>
			<path class="st24" d="M1091.1,387.1c2.5,6.3,10.4,11.2,11.1,11.2c0.8-0.1,2.6-0.9,1.9-1.7c-0.7-0.8-4.9-4-5.4-5.2
				c-0.4-1.2-2.2-8.5-2.4-8.5C1096.2,382.9,1091.1,387.1,1091.1,387.1z"/>
		</g>
		<polygon class="st24" points="1086,343.6 1099.7,380.4 1087.8,383.9 1072.6,360.8 		"/>
		<path class="st23" d="M1091.1,378.9c-4.6-10.1-5.1-19.6-1.3-21.2c0.4-0.2,0.9-0.2,1.4-0.2l-5.1-13.8l-13.4,17.2l15.2,23.1l5-1.5
			C1092.2,381.3,1091.6,380.1,1091.1,378.9z"/>
		<path class="st49" d="M1074,316.1c8,10.2,17.4,37.1,17.4,37.1l-19.2,9.7l-6.8-12.5L1074,316.1z"/>
		<path class="st66" d="M1072.3,341.4c-1.1-3.4-1.8-6.7-2.2-9.9l-4.7,18.8l6.8,12.5l8.9-4.5C1077.7,354.3,1074.5,348.3,1072.3,341.4
			z"/>
		<polygon class="st67" points="1105.9,381.7 1081.9,372.2 1076.2,374.9 1100.3,395.9 		"/>
		<polygon class="st68" points="1100.5,384.5 1076.2,374.9 1070.9,389.1 1094.8,398.7 		"/>
		<polygon class="st69" points="1184.3,374.1 1122.1,371.6 1097.8,385.3 1158.8,388.2 		"/>
		<polygon class="st70" points="1001,416.7 975,423.7 977.3,452.4 1006.6,452.4 		"/>
		<polygon class="st71" points="1001,416.7 1038.1,424.9 1036.9,452.4 998,452.4 		"/>
		<polygon class="st70" points="1001.4,416.8 1019,440.2 1038.1,424.9 1019.2,438.7 		"/>
		<path class="st63" d="M1034.1,391.7c0,0.8,22.8,59,22.8,59c0.9,0,7.5-63,5.4-83.9l-9.4-0.1L1034.1,391.7z"/>
		<path class="st72" d="M1042,380l-9.1,12.1c0,0.8,23.9,58.6,23.9,58.6c0,0,0,0,0.1-0.1C1054.8,438.4,1044.7,394.8,1042,380z"/>
		<path class="st63" d="M1016.7,370.8c-2.5,25.9,5.5,79.9,5.5,79.9h0.6l21.2-54.2l6-6.9l4.1-23L1016.7,370.8z"/>
		<g>
			<path class="st72" d="M1023.3,384.2c15,3,32.5,0,39.5-5.8l0.6-10.8l-47.8,2.9c-2.5,25.9,6.6,80.1,6.6,80.1h0.6l0.2-0.6
				L1023.3,384.2z"/>
			<polygon class="st72" points="1039.7,393.1 1041.9,396 1035.5,418.6 1044.5,396.2 1051.8,390.6 1045.3,393.8 			"/>
		</g>
		<path class="st73" d="M1040.1,359.5c9.3,5.9,23.1,5.1,23.1,5.1s27.8-34.5,7.8-53.2C1044.1,315.4,1040.1,359.5,1040.1,359.5z"/>
		<path class="st49" d="M1014.3,373.8c8.5,9.6,49.1,5.3,49.7,1.1c0.6-4.3-2.3-17.1,6-29.7c8.3-12.6,6.6-22.8,4.8-27.1
			c-2.4-5.8-4.2-10.2-19.8-9.8C1039.5,308.7,1014.9,324.7,1014.3,373.8z"/>
		<path class="st66" d="M1063.7,355.3c-3.2,9.4-1.5,13,0.2,19.9c0.1-0.1,0.1-0.2,0.1-0.3c0.7-4.1-1.8-18.5,6.8-31
			C1068.1,345.8,1066.1,348.2,1063.7,355.3z"/>
		<path class="st66" d="M1028.6,359.2c4.3-24.4,19.8-44.1,34.7-44.1c6.9,0,7.3-7.2-8.3-6.8c-15.6,0.4-40.1,16.4-40.8,65.5
			c2.5,2.8,7.7,4.4,13.8,5.2C1027.2,373.1,1027.4,366.3,1028.6,359.2z"/>
		
			<ellipse transform="matrix(2.814721e-02 -0.9996 0.9996 2.814721e-02 712.4524 1360.9479)" class="st66" cx="1056.1" cy="314.1" rx="5.6" ry="9.9"/>
		<polygon class="st24" points="1060.4,345.8 1077.1,379.4 1067.3,385.5 1044.1,358.5 		"/>
		<g>
			<path class="st24" d="M1083,388.9c-0.3-1.6-4.6-7.5-7.4-10.5l-9,5c1.7,6.7,8.5,11,9.8,10.3C1077.8,393,1083.2,390.5,1083,388.9z"
				/>
			<path class="st24" d="M1086.3,381c-0.5-0.4-5.4,0-11-3.2l1.1,5.7c1.5,0.9,8.8,1,9.9,0.4C1087.4,383.2,1087,381.5,1086.3,381z"/>
			<path class="st24" d="M1088.4,390.6c-0.4-0.4-4.3-3.4-8.7-6l-0.5,4c0,0,6.9,4.3,8,4.2C1088.4,392.7,1088.9,391.2,1088.4,390.6z"
				/>
			<path class="st24" d="M1086,395.8c0-0.6-4.2-4.3-8.1-7.6l-0.9,4c0,0,6.1,5.5,7.2,5.5C1085.2,397.7,1086,396.4,1086,395.8z"/>
			<path class="st24" d="M1068.9,388.4c2.5,6.3,10.4,11.2,11.1,11.2c0.8-0.1,2.6-0.9,1.9-1.7c-0.7-0.8-4.9-4-5.4-5.2
				c-0.4-1.2-2.2-8.5-2.4-8.5C1074,384.2,1068.9,388.4,1068.9,388.4z"/>
		</g>
		<path class="st23" d="M1064.9,373.9c-6.3-9.8-8.3-19.5-4.4-21.6c0.9-0.5,1.8-0.4,3.1,0l-3.2-6.4l-16.3,12.7l23.2,27
			C1067.3,385.5,1067.3,377.6,1064.9,373.9z"/>
		<path class="st74" d="M1014.5,353.2c8.4,7.1,22.2,8.3,22.2,8.3s28.2-37.7,16.1-53.2C1025.4,308.5,1014.5,353.2,1014.5,353.2z"/>
		<path class="st73" d="M1036.7,361.5c0,0,25.9-34.7,17.4-51.2c-5.7,3.4-12.7,14.1-17.7,27.7c-3,8.3-4.7,16.3-5.1,22.6
			C1034.5,361.3,1036.7,361.5,1036.7,361.5z"/>
		<path class="st49" d="M1049.8,315.1c7.3,11.7,14.5,33,14.5,33l-19.2,13.6c0,0-9.9-14-11.5-17.1
			C1025.6,328.8,1045.5,308,1049.8,315.1z"/>
		<path class="st66" d="M1044.8,342.6c-4.1-9.7-5.7-19-4.7-24.8c-6.8,6.4-13.5,19.1-8.4,29.1c1.6,3.1,13.4,14.9,13.4,14.9l7.6-5.4
			C1049.9,352.7,1047.1,347.9,1044.8,342.6z"/>
		<path class="st75" d="M1078,293.8c0,0,0.3-1.8-1.2-3c-1.5-1.2-3-0.2-3-0.2s-0.1-0.9-2.3-1.5c-2.2-0.6-4.4,2.5-4.4,2.5
			s-3.5,0.6-5.3,8.8l10.4,7.6c0,0,7.3-7.2,7.9-10.3C1080.5,294.8,1078,293.8,1078,293.8z"/>
		<path class="st60" d="M1056.1,308.4l7.7-6.1l6.2,8.5l-0.9,1.6c-3.4,6.3-13.3,3.9-13.1-3.3C1056.1,308.9,1056.1,308.7,1056.1,308.4
			z"/>
		<path class="st24" d="M1064.7,298.6c-2.9,4.6-3.4,9.8-3.3,10.9c0.1,1.1,6.9,5.5,8.8,5.1c1.9-0.4,7.7-14.2,7.4-15.6
			C1077.2,297.6,1068.6,292.4,1064.7,298.6z"/>
		<g>
			<path class="st76" d="M1071.1,302.8c0.2-0.5,0-1-0.3-1.1c-0.4-0.1-0.8,0.2-1,0.7c-0.2,0.5-0.1,1,0.3,1.1
				C1070.4,303.6,1070.9,303.3,1071.1,302.8z"/>
			<path class="st76" d="M1074.9,304.5c0.2-0.5,0.1-1-0.3-1.1c-0.3-0.1-0.7,0.2-0.9,0.7c-0.2,0.5-0.1,1,0.3,1.1
				C1074.3,305.3,1074.7,305,1074.9,304.5z"/>
			<path class="st75" d="M1072.3,299.1l-2.7-0.2c-0.3,0-0.6,0.2-0.7,0.6l-0.1,0.7c0,0.3,0.2,0.6,0.6,0.7l2.7,0.2
				c0.3,0,0.6-0.2,0.6-0.6l0.1-0.7C1072.9,299.5,1072.6,299.2,1072.3,299.1z"/>
			<path class="st75" d="M1077,301.6l-1.8-1.1c-0.2-0.1-0.5,0-0.7,0.3l-0.3,0.6c-0.1,0.3-0.1,0.6,0.2,0.8l1.9,1.1
				c0.2,0.1,0.5,0,0.6-0.3l0.3-0.6C1077.3,302,1077.2,301.7,1077,301.6z"/>
			<path class="st60" d="M1072.3,304.2c0,0-0.1,0.1-0.3,0.2c0,1.2-0.2,3.1-1.6,2c0,0,0,0.1,0,0.1
				C1072.6,308.8,1072.5,305,1072.3,304.2z"/>
			<path class="st77" d="M1072,308.7c0,0.1-0.1,0.2-0.1,0.4c-0.5,1.3-1.7,1.9-2.7,1.4c-1-0.5-1.6-2.1-1.2-3.6L1072,308.7z"/>
			<path class="st62" d="M1071.2,309.7l-2.9-1.1c-0.1-0.5-0.2-1-0.1-1.5l3.5,1.7c0,0.1-0.1,0.2-0.1,0.3
				C1071.5,309.3,1071.4,309.5,1071.2,309.7z"/>
		</g>
		<path class="st75" d="M1059.3,305.9l2.8-2l3.4,0.7c0,0,7.9-11.3,2.8-10.9C1063.2,294.1,1059.3,305.9,1059.3,305.9z"/>
		<path class="st24" d="M1065.3,302.2c0.5-1.9,0.1-3.6-0.9-3.8c-1-0.3-2.2,1-2.7,2.9c-0.5,1.9-0.1,3.6,0.9,3.8
			S1064.9,304,1065.3,302.2z"/>
		<path class="st49" d="M1063.7,294.9l16.3-0.7c0,0,0.9-7.1-6.9-6.4S1063.7,294.9,1063.7,294.9z"/>
		<path class="st78" d="M1074.3,287.8c-2.2,0.9-3.8,3-3.8,5.5c0,0.5,0.1,0.9,0.2,1.3l9.3-0.4C1080,294.2,1080.8,287.9,1074.3,287.8z
			"/>
		<path class="st72" d="M1063.9,294.9c8.6-3.7,16.3-4.1,19.5-0.7c3.1,3.4-4.3,5.7-4.3,5.7C1079,296.5,1072.3,294.7,1063.9,294.9z"/>
		<polygon class="st70" points="1091.3,388.6 1053.7,387.5 1044.2,401.1 1095.1,399.9 		"/>
		<polygon class="st69" points="1099.5,385.2 1053.7,387.5 1064.2,452.4 1104.4,452.4 		"/>
		<polygon class="st70" points="1097.8,385.2 1159.9,387.5 1158.7,452.4 1102.6,452.4 		"/>
		<polygon class="st71" points="1099.8,413.5 1102.6,452.4 1158.7,452.4 1159.6,405.1 		"/>
		<g class="st79">
			<path class="st80" d="M1113.3,419.1c0.1,0.1,0.2,0.2,0.2,0.2c0,0.1-0.1,0.2-0.3,0.3c-0.2,0.2-0.8,0.9-1,1c0,0-0.1,0.1-0.1,0.1
				c-0.1,0-0.2-0.1-0.3-0.2c-0.1-0.1-0.4-0.4-0.9-0.4c-0.5,0.1-0.8,0.6-0.6,2.5c0.2,1.9,0.8,2.4,1.1,2.3c0.3-0.1,0.5-0.2,0.6-0.7
				c0.1-0.3,0.2-0.4,0.3-0.4c0.1,0,0.2,0,0.3,0c0.2,0,1.2,0.1,1.6,0.1c0.1,0,0.2,0.1,0.2,0.3c0,0.1,0,0.1,0,0.2c0,0.1,0,0.3-0.1,0.5
				c-0.2,0.8-0.7,2.4-2.7,2.7c-1.4,0.2-3.7-0.5-4.1-4.5c-0.4-4,1.7-4.9,2.9-5.1C1112.4,417.7,1113,418.8,1113.3,419.1z"/>
			<path class="st80" d="M1119.5,420.9c0.4-0.1,1-0.2,1.6-0.3c0.3-0.1,0.7-0.1,1-0.2l0-0.4c0-0.2-0.1-0.5-0.1-0.7
				c0-0.4-0.2-2.8-0.2-3c0-0.1,0.1-0.1,0.1-0.1c0.1,0,0.1,0,0.1,0c0.1,0,0.1,0,0.2,0c0.1,0,0.2,0,0.2,0c0.1,0,0.1,0,0.1,0.1
				c0,0,0,0.1,0,0.1c0,0.1,0,0.6,0,1.2c0,0.6,0.2,3.4,0.3,4c0.1,0.6,0.2,2.6,0.2,2.8c0,0.1,0,0.3,0,0.5c0,0.2,0,0.3,0.1,0.4
				c0,0,0,0.1,0,0.1c0,0.1-0.1,0.1-0.1,0.1c-0.1,0-0.3,0.1-0.5,0.1c-0.1,0-0.1,0-0.1-0.1c0,0.4-0.1-1.2-0.2-1.9
				c0-0.3-0.1-0.9-0.1-1.4l-0.1-1l-1.1,0.2c-0.6,0.1-1.2,0.2-1.5,0.3l-1.2,0.2c-0.3,0-0.5,0.1-0.8,0.1c0,0.1,0,0.2,0,0.3
				c0,0.2,0,0.5,0.1,0.8c0,0.3,0.1,0.9,0.1,1.4c0.1,0.6,0.1,1.1,0.2,1.4c0,0.1,0,0.1,0,0.2c0,0.3-0.2,0.3-0.4,0.3
				c-0.3,0-0.7,0.1-1.1,0.2c-0.4,0.1-0.3-0.2-0.4-0.8c-0.1-0.5-0.4-3.8-0.5-4.6c-0.1-0.8-0.3-3.1-0.3-3.4c0-0.4,0.1-0.4,0.2-0.5
				c0.1,0,0.2,0,0.3,0c0.1,0,0.2,0,0.3-0.1c0.1,0,0.1,0,0.2-0.1c0.2,0,0.5,0,0.6-0.1c0.3,0,0.2,0.2,0.2,0.4c0,0.2,0.1,0.8,0.1,1.6
				l0.1,1.3l0,0.8l0.8-0.1C1118.5,421.1,1119.1,421,1119.5,420.9z"/>
			<path class="st80" d="M1126.3,415.4c0-0.1,0.1-0.2,0.2-0.1c0.1,0.1,0.1,0.2,0.2,0.3c0.1,0.2,0.6,1.1,0.9,1.5
				c0.2,0.4,0.5,0.8,0.7,1.3c0.2,0.5,1,1.7,1.4,2.3c0.3,0.6,1.1,1.7,1.4,2.1c0.2,0.3,0.5,0.9,0.7,1.1c0,0.1,0.1,0.1,0.1,0.2
				c0,0.1-0.1,0.1-0.2,0.1l-1,0.2c-0.1,0-0.2-0.2-0.3-0.4c-0.1-0.2-0.6-1.1-0.7-1.3c-0.1-0.2-0.3-0.5-0.4-0.7
				c-0.1-0.2-0.2-0.2-0.3-0.2c-0.1,0-0.3,0.1-0.5,0.1c-0.2,0.1-1,0.2-1.4,0.3c-0.1,0-0.3,0.1-0.4,0.1c-0.3,0.1-0.6,0.1-0.7,0.1
				c-0.1,0-0.1,0.2-0.1,0.3c0,0.1-0.1,1-0.2,1.3l-0.1,0.6l-0.1,0.4c0,0.2-0.1,0.3-0.1,0.3l-0.8,0.1c-0.1,0-0.1,0-0.1,0
				c0,0,0-0.1,0-0.2c0-0.1,0.1-0.2,0.1-0.5c0.1-0.4,0.3-1.7,0.4-2.2c0-0.6,0.2-1.4,0.3-1.8c0.1-0.5,0.1-0.7,0.2-1.3
				c0.1-0.6,0.2-1.3,0.3-1.8l0.2-1.1C1126.2,415.8,1126.3,415.5,1126.3,415.4z M1128.1,419.9
				C1128.1,419.9,1128.1,419.9,1128.1,419.9c-0.2-0.2-0.7-1.1-0.8-1.5c-0.2-0.4-0.4-0.7-0.4-0.8c-0.1-0.2-0.1-0.3-0.2-0.2
				c-0.1,0-0.1,0.3-0.1,0.5c0,0.2-0.2,1-0.2,1.2c0,0.3-0.2,0.7-0.2,0.9c0,0.1,0,0.2,0,0.2c0,0.1,0,0.1,0.1,0.1
				c0.2,0,1.4-0.3,1.6-0.3C1128,420,1128.1,420,1128.1,419.9z"/>
			<path class="st80" d="M1133,419.4c0.1,0.6,0.4,3.8,0.5,4.2c0,0.3-0.3,0.4-0.5,0.4c-0.2,0-0.2-0.2-0.2-0.3c0-0.1-0.1-0.3-0.1-0.6
				c0-0.1,0-0.3,0-0.4c0-0.3-0.3-3.6-0.5-5.7c-0.1-0.9-0.2-1.6-0.2-1.8c0-0.1,0-0.2,0-0.3c0-0.3,0.1-0.3,0.2-0.3
				c0.2,0,1.4-0.2,2-0.3c0.6-0.1,2.5-0.3,2.6,0.9c0.2,1.6-2,2.2-2.7,2.3c-0.1,0-0.2,0-0.2,0c0.1,0.1,4.3,4.5,4.8,4.9
				c0.3,0.2,0.4,0.3,0.4,0.4c0,0,0,0.1-0.1,0.1c-0.1,0.1-0.3,0.1-0.6,0.2c-0.6,0.1-0.5,0-0.7-0.2c-0.1-0.2-1.5-1.5-2.2-2.3
				c-0.4-0.4-1-1-1.6-1.6l-1-1l0,0.5C1132.9,418.8,1133,419.2,1133,419.4z M1133.5,417c0.4-0.1,0.8-0.2,1.2-0.3
				c0.7-0.2,1.2-0.5,1.1-1.1c-0.1-0.6-1.2-0.7-1.7-0.6c-0.3,0-0.7,0.1-0.9,0.1l-0.5,0.1l0.1,1.9
				C1133.1,417.1,1133.3,417.1,1133.5,417z"/>
			<path class="st80" d="M1140.1,415.2c0.1,0.7,0.2,3,0.2,3.7c0.1,0.7,0.3,3,0.4,3.3c0,0.1,0,0.1,0,0.2c0,0.1,0,0.2-0.1,0.2
				c-0.1,0.1-0.2,0.1-0.4,0.1c-0.4,0.1-0.3,0.1-0.4-0.5c0-0.5-0.3-3.6-0.4-4.5c-0.1-0.9-0.2-3.5-0.3-3.8c0-0.1,0-0.2,0-0.3
				c0-0.2,0-0.4,0.2-0.4c0.1,0,0.3,0,0.5-0.1c0.1,0,0.1,0.1,0.2,0.2c0,0.1,0,0.2,0,0.3C1140,414,1140.1,414.5,1140.1,415.2z"/>
			<path class="st80" d="M1144.1,412.6c0.4-0.1,1.6-0.2,2.3-0.3c0.2,0,0.4-0.1,0.5-0.1c0.5-0.1,0.6,0.1,0.6,0.2c0,0.1,0,0.5,0.1,1
				c0,0.4,0.1,0.8,0.1,1c0,0.2-0.1,0.4-0.4,0.4l-2.3,0.4l0.1,1.4c0,0.2,0,0.6,0.1,1.1c0.1,1.5,0.4,3.6,0.4,3.8c0,0,0,0,0,0.1
				c0,0.2,0,0.2-0.2,0.2l-0.9,0.2c-0.3,0-0.2,0-0.3-0.4c0-0.4-0.2-3.7-0.3-4.4c-0.1-0.5-0.2-1.4-0.2-1.7c-0.9,0.2-2.2,0.4-2.3,0.4
				c-0.3,0-0.3-0.1-0.3-0.3c0-0.1-0.1-1.2-0.1-1.8c0-0.2,0-0.3-0.1-0.4c0,0,0-0.1,0-0.1c0-0.2,0.1-0.2,0.2-0.2l1.3-0.2
				C1142.8,412.8,1143.6,412.6,1144.1,412.6z"/>
			<path class="st80" d="M1150.7,414.8c0.1,0.2,0.3,0.6,0.5,0.9c0.1,0.2,0.2,0.4,0.3,0.6l0.1-0.3l0.1-0.6c0.1-0.3,0.4-1.8,0.6-2.1
				c0.1-0.3,0.3-1.1,0.3-1.6c0.1-0.5,0.3-0.4,0.5-0.5c0.1,0,0.4-0.1,0.7-0.1c0.2,0,0.5-0.1,0.6-0.1c0.2,0,0.3,0,0.3,0.1
				c0,0,0,0.1,0,0.1c-0.1,0.2-0.2,1.1-0.4,1.6c-0.1,0.5-0.7,2.5-0.9,3.2c-0.2,0.6-0.9,3.1-0.9,3.4c-0.1,0.2-0.1,0.8-0.1,1
				c0,0.2-0.1,0.3-0.2,0.3l-0.8,0.1c-0.2,0-0.8,0.2-1,0.2c-0.1,0-0.2,0-0.2,0c0,0,0-0.1,0-0.2l0.4-1.4c0-0.2,0.2-0.8,0.2-1
				c0.1-0.2,0.2-0.4,0.1-0.5c-0.1-0.1-0.3-0.8-0.5-1.1c-0.2-0.3-0.3-0.7-0.5-1.1c-0.2-0.4-1.2-2.5-1.3-2.8c-0.1-0.3-0.3-0.5-0.3-0.7
				c0-0.1,0.2-0.2,0.4-0.2c0.2,0,0.4-0.1,0.7-0.1c0.2,0,0.1,0.1,0.2,0.2l0.4,1C1150.1,413.6,1150.4,414.3,1150.7,414.8z"/>
		</g>
		<path class="st81" d="M1118.7,405.9c-8.6-0.9-13.9-3.6-11.6-6.1c2.3-2.5,5.5-0.2,5.5-0.2s-1.7-5.4,1-6.3
			C1117.4,392.1,1118.7,405.9,1118.7,405.9z"/>
		<path class="st81" d="M1123,398.3c-3.5-5.3-4.4-9.6-2-9.4c2.5,0.1,2.7,3,2.7,3s2.3-3.5,4-2.4C1130.3,391.1,1123,398.3,1123,398.3z
			"/>
		<path class="st81" d="M1139.3,438.4c-4.5-4.7-6.2-8.9-3.6-9.2c2.5-0.3,3.2,2.6,3.2,2.6s1.7-3.9,3.6-3.1
			C1145.3,429.9,1139.3,438.4,1139.3,438.4z"/>
		<path class="st81" d="M1145.4,436.1c0.6-4.8,2.2-7.6,3.5-6.3c1.3,1.3,0,3,0,3s3-0.9,3.5,0.6
			C1153.1,435.6,1145.4,436.1,1145.4,436.1z"/>
		<path class="st52" d="M1056.2,452.4h6.7c0,0-5-3.5-5.9-3.5S1056.2,452.4,1056.2,452.4z"/>
		<path class="st52" d="M1023.8,452.4h-7.5c0,0,5.6-3.5,6.7-3.5C1024.1,448.9,1023.8,452.4,1023.8,452.4z"/>
		<polygon class="st69" points="1001,417.1 986.9,439.4 975,423.7 987.1,440.8 		"/>
		<polygon class="st71" points="995.4,445 989.4,445.6 989.4,449.7 995.4,449.7 		"/>
		<polygon class="st82" points="1054,387.9 1076.7,426.3 1097.8,385.6 1077,424.8 		"/>
		<polygon class="st82" points="1102.5,452.2 1077,424.5 1064.3,452.3 1077.1,426.6 		"/>
		<polygon class="st83" points="1092.3,443.6 1084.2,443.6 1084.5,449 1092.6,449 		"/>
		<path class="st60" d="M1064.5,302c0.2-1.1-0.1-2.1-0.7-2.2s-1.3,0.6-1.6,1.7c-0.2,1.1,0.1,2.1,0.7,2.2
			C1063.6,303.9,1064.3,303.1,1064.5,302z"/>
		<path class="st24" d="M1064.1,303c0.2-0.8-0.1-1.4-0.5-1.5c-0.4-0.1-0.9,0.4-1.1,1.2c-0.2,0.8,0.1,1.4,0.5,1.5
			C1063.5,304.3,1064,303.8,1064.1,303z"/>
		<path class="st84" d="M1052.8,320.3c-0.4,3.8,0.5,9.5,2.6,15.6c2,5.8,4.8,10.6,7.4,13.3l1.6-1.1
			C1064.4,348.1,1059,332.2,1052.8,320.3z"/>
	</g>
	<g>
		<path class="st51" d="M816.4,279.2c1.7-12-0.6-20-5.2-17.7c-4.6,2.3-2.3,7.4-2.3,7.4s-7.7-4.1-10-0.7
			C795.7,273.1,816.4,279.2,816.4,279.2z"/>
		<path class="st51" d="M858.3,177.3c10.5-6.7,15.5-13.6,11-15.3c-4.5-1.7-7.2,3.3-7.2,3.3s-1.3-8-5.3-7.4
			C851,158.7,858.3,177.3,858.3,177.3z"/>
		<path class="st51" d="M828.6,237.3c8.3-7.6,11.7-14.4,7.4-15.3c-4.3-0.8-5.9,4-5.9,4s-2.4-7-5.8-5.8
			C819.2,221.9,828.6,237.3,828.6,237.3z"/>
		<path class="st51" d="M886.4,236.7c7.3-9,9.6-16.5,5.1-16.7c-4.5-0.2-5.3,5-5.3,5s-3.5-6.7-6.9-5
			C874.4,222.5,886.4,236.7,886.4,236.7z"/>
	</g>
	<path class="st85" d="M254.4,594.6c-3.4,0-6.7,0.6-9.6,1.6c-3.7-14.1-15.1-24.3-28.7-24.3c-10.9,0-20.5,6.7-25.7,16.7
		c-6.7-6-15.4-9.7-24.8-9.7c-9,0-17.3,3.3-23.9,8.9c-0.5-1.3-1.1-2.5-1.7-3.8c1.9-5.6,2.9-11.8,2.9-18.1c0-12.3-3.8-23.5-10.1-32.5
		c0,0,0,0-0.1-0.1c-0.4-0.6-0.8-1.1-1.2-1.6c0,0-0.1-0.1-0.1-0.1c-0.4-0.5-0.8-1.1-1.3-1.6c0,0,0,0,0,0c-1.8-2.1-3.7-4-5.7-5.8
		c-0.1-0.1-0.2-0.1-0.2-0.2c-0.4-0.3-0.8-0.7-1.2-1c-0.2-0.1-0.4-0.3-0.5-0.4c-0.4-0.3-0.8-0.6-1.1-0.8c-0.2-0.2-0.4-0.3-0.7-0.5
		c-0.4-0.3-0.7-0.5-1.1-0.7c-0.3-0.2-0.5-0.3-0.8-0.5c-0.4-0.2-0.7-0.4-1.1-0.7c-0.3-0.2-0.6-0.3-0.9-0.5c-0.3-0.2-0.7-0.4-1-0.6
		c-0.3-0.2-0.7-0.3-1-0.5c-0.3-0.2-0.6-0.3-1-0.5c-0.6-0.3-1.3-0.6-1.9-0.9c-0.3-0.1-0.5-0.2-0.8-0.3c-0.4-0.2-0.9-0.3-1.3-0.5
		c-0.3-0.1-0.6-0.2-0.9-0.3c-0.4-0.1-0.8-0.3-1.2-0.4c-0.3-0.1-0.6-0.2-0.9-0.3c-0.4-0.1-0.8-0.2-1.3-0.3c-0.3-0.1-0.6-0.1-0.9-0.2
		c-0.4-0.1-0.9-0.2-1.3-0.3c-0.3-0.1-0.6-0.1-0.9-0.2c-0.5-0.1-0.9-0.1-1.4-0.2c-0.3,0-0.6-0.1-0.9-0.1c-0.5-0.1-1-0.1-1.5-0.1
		c-0.3,0-0.5,0-0.8-0.1c-0.8,0-1.5-0.1-2.3-0.1h0c0,0,0,0,0,0c-0.9,0-1.8,0-2.7,0.1c-0.2,0-0.4,0-0.6,0.1c-0.7,0.1-1.4,0.1-2.1,0.2
		c-0.2,0-0.3,0-0.5,0.1c-0.8,0.1-1.6,0.3-2.4,0.4c0,0-0.1,0-0.1,0c-8.1,1.6-15.5,5.5-21.6,11.1c-2.8-7.4-7.4-13.7-13.3-18.3
		c0,0-0.1-0.1-0.1-0.1c-0.6-0.5-1.2-0.9-1.8-1.3c-0.1,0-0.1-0.1-0.2-0.1c-1.3-0.9-2.7-1.7-4-2.4c-0.1,0-0.1-0.1-0.2-0.1
		c-0.6-0.3-1.2-0.6-1.8-0.9c-0.2-0.1-0.3-0.1-0.5-0.2c-0.5-0.2-1.1-0.4-1.7-0.7c-0.2-0.1-0.3-0.1-0.5-0.2c-0.7-0.2-1.4-0.5-2.1-0.7
		c0,0,0,0,0,0c-0.7-0.2-1.5-0.4-2.2-0.5c-0.2,0-0.4-0.1-0.6-0.1c-0.5-0.1-1.1-0.2-1.6-0.3c-0.2,0-0.5-0.1-0.7-0.1
		c-0.5-0.1-1.1-0.1-1.6-0.2c-0.2,0-0.5,0-0.7-0.1c-0.8,0-1.5-0.1-2.3-0.1c0,0,0,0,0,0c0,0,0,0,0,0c0,0,0,0,0,0c0,0,0,0,0,0
		c-0.6,0-1.3,0-1.9,0.1c-0.2,0-0.4,0-0.6,0c-0.4,0-0.8,0.1-1.2,0.1c-0.3,0-0.5,0.1-0.8,0.1c-0.4,0-0.7,0.1-1.1,0.1
		c-0.3,0-0.6,0.1-0.8,0.1c-0.3,0.1-0.6,0.1-0.9,0.2c-0.3,0.1-0.6,0.1-0.9,0.2c-0.3,0.1-0.6,0.1-0.8,0.2c-0.3,0.1-0.6,0.2-1,0.3
		c-0.2,0.1-0.5,0.1-0.7,0.2c-0.4,0.1-0.7,0.2-1,0.3c-0.1,0.1-0.3,0.1-0.4,0.2c-2,0.7-3.9,1.6-5.8,2.7c0,0,0,0,0,0
		c-0.5,0.3-0.9,0.5-1.4,0.8c0,0-0.1,0-0.1,0c-0.5,0.3-0.9,0.6-1.4,0.9c0,0,0,0,0,0c-3.1,2.1-5.9,4.8-8.3,7.7V600h271.3
		C266.8,596.6,260.9,594.6,254.4,594.6z"/>
	<path class="st85" d="M1200,504.9c-0.3,0-0.5,0-0.8,0.1c-0.1,0-0.2,0-0.3,0.1c-0.2,0-0.5,0.1-0.7,0.2c-0.1,0-0.3,0.1-0.4,0.1
		c-0.2,0.1-0.4,0.2-0.7,0.2c-0.1,0.1-0.3,0.1-0.4,0.2c-0.2,0.1-0.4,0.2-0.6,0.3c-0.1,0.1-0.3,0.1-0.4,0.2c-0.2,0.1-0.4,0.3-0.7,0.4
		c-0.1,0.1-0.2,0.2-0.3,0.2c-0.3,0.2-0.6,0.5-0.9,0.8c-0.1,0.1-0.1,0.1-0.2,0.2c-0.3,0.2-0.5,0.5-0.8,0.8c-0.1,0.1-0.3,0.3-0.4,0.4
		c-0.2,0.2-0.4,0.4-0.6,0.6c-0.1,0.2-0.3,0.4-0.4,0.5c-0.2,0.2-0.3,0.4-0.5,0.7c-0.1,0.2-0.3,0.4-0.4,0.6c-0.2,0.2-0.3,0.4-0.5,0.7
		c-0.1,0.2-0.3,0.5-0.4,0.7c-0.1,0.2-0.3,0.5-0.4,0.7c-0.2,0.3-0.3,0.5-0.5,0.8c-0.1,0.2-0.2,0.4-0.3,0.6c-0.3,0.6-0.7,1.3-1,1.9
		c-0.1,0.2-0.2,0.4-0.3,0.5c-0.2,0.4-0.3,0.7-0.5,1.1c-0.1,0.2-0.2,0.4-0.3,0.6c-0.2,0.4-0.3,0.8-0.5,1.2c-0.1,0.2-0.2,0.4-0.2,0.6
		c-0.2,0.4-0.3,0.9-0.5,1.3c-0.1,0.2-0.1,0.4-0.2,0.6c-0.2,0.5-0.3,1-0.5,1.4c0,0.1-0.1,0.2-0.1,0.3c-0.8,2.4-1.5,5-2.2,7.8
		c0,0.1,0,0.1,0,0.2c-0.2,0.7-0.3,1.3-0.5,2c0,0.1,0,0.2-0.1,0.3c-0.1,0.5-0.2,1.1-0.3,1.7c-4.3-2.8-9.1-4.6-14.1-5.1
		c-0.2,0-0.4,0-0.5,0c-0.4,0-0.8-0.1-1.1-0.1c-0.6,0-1.2-0.1-1.8-0.1c-11.5,0-21.7,6.4-28.7,16.5c-0.3-0.2-0.7-0.3-1-0.4
		c-0.1-0.1-0.3-0.1-0.4-0.2c-0.3-0.1-0.5-0.2-0.8-0.3c-0.2-0.1-0.3-0.1-0.5-0.2c-0.2-0.1-0.5-0.2-0.7-0.2c-0.2-0.1-0.3-0.1-0.5-0.1
		c-0.2-0.1-0.5-0.1-0.7-0.2c-0.2,0-0.4-0.1-0.5-0.1c-0.2-0.1-0.5-0.1-0.7-0.1c-0.2,0-0.4-0.1-0.5-0.1c-0.3,0-0.5-0.1-0.8-0.1
		c-0.2,0-0.3,0-0.5-0.1c-0.3,0-0.6-0.1-0.9-0.1c-0.1,0-0.3,0-0.4,0c-0.4,0-0.9,0-1.3,0c-0.5,0-1,0-1.6,0.1c-0.1,0-0.2,0-0.4,0
		c-0.4,0-0.8,0.1-1.2,0.1c-0.1,0-0.2,0-0.3,0c-0.5,0.1-0.9,0.1-1.4,0.2c0,0,0,0-0.1,0c-4.6,1-8.9,3.2-12.4,6.4
		c-1.6-4.2-4.3-7.8-7.7-10.4c0,0,0,0-0.1-0.1c-0.3-0.3-0.7-0.5-1-0.7c0,0-0.1,0-0.1-0.1c-0.7-0.5-1.5-1-2.3-1.4c0,0-0.1,0-0.1,0
		c-0.3-0.2-0.7-0.3-1.1-0.5c-0.1,0-0.2-0.1-0.3-0.1c-0.3-0.1-0.6-0.3-1-0.4c-0.1,0-0.2-0.1-0.3-0.1c-0.4-0.1-0.8-0.3-1.2-0.4
		c0,0,0,0,0,0c-0.4-0.1-0.8-0.2-1.3-0.3c-0.1,0-0.2,0-0.3-0.1c-0.3-0.1-0.6-0.1-0.9-0.2c-0.1,0-0.3,0-0.4-0.1
		c-0.3,0-0.6-0.1-0.9-0.1c-0.1,0-0.3,0-0.4,0c-0.4,0-0.9,0-1.3,0c-0.6,0-1.2,0-1.9,0.1c-0.1,0-0.2,0-0.2,0c-0.6,0.1-1.2,0.2-1.7,0.3
		c-0.1,0-0.2,0-0.3,0.1c-0.6,0.1-1.2,0.3-1.7,0.4c-0.1,0-0.1,0-0.2,0.1c-1.8,0.6-3.6,1.4-5.2,2.4c0,0,0,0,0,0c-2.8,1.8-5.2,4.1-7,7
		c-2.4-1.3-5.1-2.2-7.8-2.9c-0.1,0-0.3-0.1-0.4-0.1c-0.3-0.1-0.6-0.1-0.9-0.2c-0.2,0-0.4-0.1-0.7-0.1c-0.3,0-0.5-0.1-0.8-0.1
		c-0.3,0-0.5-0.1-0.8-0.1c-0.2,0-0.5-0.1-0.7-0.1c-0.3,0-0.7-0.1-1-0.1c-0.2,0-0.4,0-0.6,0c-0.5,0-1.1,0-1.6,0c-0.5,0-1.1,0-1.6,0
		c-0.2,0-0.3,0-0.5,0c-0.4,0-0.7,0.1-1.1,0.1c-0.2,0-0.4,0-0.6,0.1c-0.3,0-0.6,0.1-1,0.1c-0.2,0-0.4,0.1-0.6,0.1
		c-0.3,0.1-0.6,0.1-1,0.2c-0.2,0-0.4,0.1-0.6,0.1c-0.4,0.1-0.8,0.2-1.3,0.3c-0.2,0.1-0.5,0.1-0.7,0.2c-0.3,0.1-0.6,0.2-0.9,0.3
		c-0.2,0.1-0.5,0.2-0.7,0.2c-0.2,0.1-0.4,0.1-0.6,0.2c-0.3,0.1-0.5,0.2-0.8,0.3c-0.2,0.1-0.3,0.1-0.5,0.2c-0.3,0.1-0.6,0.2-0.9,0.4
		c-0.1,0-0.2,0.1-0.3,0.2c-7.4,3.4-13.4,9.6-16.7,17.2c-6-8.4-15.2-13.7-25.4-13.6c-18,0.1-32.6,16.8-32.5,37.4
		c0,4.1,0.6,8,1.7,11.7H1200V504.9z"/>
	<g>
		<path class="st86" d="M152.9,392.5l23,17.2l-6.1,41.8c0,0,23.1-41.8,23.5-45.5c0.3-3.7-15.6-36.7-15.6-36.7l-29-4
			C148.5,365.5,146.6,385.8,152.9,392.5z"/>
		<path class="st87" d="M169.7,451.2l15-46.8l-22.5-18.9l2.2-17.9l-16-2.2c0,0-1.9,20.3,4.3,27.1l23,17.2L169.7,451.2z"/>
		<path class="st86" d="M162.9,389.7l-30.5,23.4l-37.3,38c0,0,10.4-31,25.5-47.6c0,0,14.8-28.4,22.8-36.1c6.2-5.9,28.5-1.5,35.4,3.5
			C181,372.4,162.9,389.7,162.9,389.7z"/>
		<path class="st87" d="M117.8,417.6c0,0,16.7-25.2,25.3-33c5-4.6,29.3-10,38.5-6.8c-2.1-6.1-3.8-10.4-4.9-11.1
			c-7-5-27.1-5-33.3,0.8c-8,7.7-22.8,36.1-22.8,36.1c-15.1,16.6-25.5,47.6-25.5,47.6l1-1C101.4,439.7,109.1,426.6,117.8,417.6z"/>
		<path class="st88" d="M178.6,452.9H167c0,0,2.8-4.6,4.3-4.7C172.7,448.1,178.6,452.9,178.6,452.9z"/>
		<path class="st88" d="M100.9,452.9h-9.7c0,0,4-4.5,5.2-4.6C97.7,448.2,100.9,452.9,100.9,452.9z"/>
		<path class="st63" d="M135.7,377.6c17.6,1.2,44.4-4,44.4-4s-3-22,4.7-29.6c9.2-9,11.8-18.3,9.3-21.7c-2.5-3.4-18.1-12.3-32.3,1.2
			C140,344.3,135.7,377.6,135.7,377.6z"/>
		<path class="st64" d="M156.9,361.7c3-17.9,18-39.1,29.1-44.3c-6.4-2-15.5-2.1-24.1,6.1c-21.9,20.8-26.1,54.1-26.1,54.1
			c6.2,0.4,13.4,0,20.3-0.6C155.7,372.3,156,367.1,156.9,361.7z"/>
		<path class="st23" d="M157.8,344.7c-1,12.5,10.7,22.9,19.1,21.2c8.4-1.7,8.2-20,3-20c-7.6-0.1-5.5-10.4-8.6-11.1
			C168.4,334.1,158.2,339.8,157.8,344.7z"/>
		<path class="st63" d="M179,345c-9.9,12.4-17.5,20-17.5,20s-8.3-19.6-5.8-27.8c2.5-8.2,9.4-14.3,15.1-9.4
			C176.5,332.7,179,345,179,345z"/>
		<path class="st64" d="M165.4,345.9c-3.1-8.9-2.3-17.3,1.8-18.7c0.9-0.3,2.2-0.5,3.2-0.1c-5.5-3.9-13.4,2.1-15.8,9.9
			c-2.5,8.2,6.9,28,6.9,28s3.5-3.5,8.9-9.7C168.5,352.8,166.7,349.6,165.4,345.9z"/>
		<path class="st86" d="M170.7,317.8c-1.6,7.1,3.1,12.6,11.8,9.1C184,318,179.2,315,170.7,317.8z"/>
		<path class="st60" d="M181.5,325.3l2.2-7.6l-6.9-5l-5.3,6.1C172.4,323.7,174,327.6,181.5,325.3z"/>
		<path class="st89" d="M187.9,307c0,0,1.8-2.6,0.2-4.1c-1.6-1.5-2.6-0.5-2.6-0.5s0.3-2.7-1.7-3.7c-2-1-2.2,1.3-2.2,1.3
			s-0.9-1.2-3-0.6c-2.1,0.7-1,3.1-1,3.1c-4.4,0.2-2.8,4.3-2.8,4.3c-0.4,0.2-1.6,2.8,0.6,8l10.9-1.9c0,0,2.9-0.9,3.1-3.3
			C189.5,307.2,187.9,307,187.9,307z"/>
		<path class="st24" d="M176.6,314c-0.1,4-0.1,6.8,0.4,7.2c0.5,0.4,6.9,2.5,9.6,1.3c0,0,1.9-14.7,0-16.5c-1.9-1.9-6.6-1.3-7.4,0
			C178.2,307.5,176.7,313,176.6,314z"/>
		<path class="st89" d="M173.6,316.5l3-1.4l2.6-0.5c0,0,2.4-8.4,1.1-9.6c0,0-3.8-0.3-4.9,3.2C174.1,312.4,173.6,316.5,173.6,316.5z"
			/>
		<path class="st24" d="M200.6,339.9l-21,6c-6,9.7-6.6,18.9-2.5,18.5c8.3-0.8,15.9-9.2,24.9-15.1L200.6,339.9z"/>
		<path class="st23" d="M177.7,354.8c-0.8,0-1.4-0.5-1.8-1.2c-2.4,6.9-2,12.5,1,12.2c8.1-0.8,15.8-10.2,24.6-16.1
			C193.2,353.2,184.7,355,177.7,354.8z"/>
		<path class="st24" d="M178.8,312.8c-0.3-1.5-1.3-2.6-2.1-2.4c-0.8,0.2-1.2,1.6-0.9,3.1c0.3,1.5,1.3,2.6,2.1,2.4
			C178.7,315.7,179.1,314.3,178.8,312.8z"/>
		<path class="st60" d="M178.2,312.9c-0.2-1-0.8-1.6-1.3-1.5c-0.5,0.1-0.8,1-0.6,1.9c0.2,1,0.8,1.6,1.3,1.5S178.5,313.8,178.2,312.9
			z"/>
		<path class="st24" d="M178.1,313.6c-0.2-0.7-0.6-1.2-0.9-1.1c-0.4,0.1-0.5,0.7-0.4,1.4c0.2,0.7,0.6,1.2,0.9,1.1
			C178,314.9,178.2,314.3,178.1,313.6z"/>
		<g>
			<path class="st24" d="M206.7,337.2c-1.3,0-6.7,2.7-9.6,4.6l2.8,8.1c5.7-0.4,10.2-5.4,9.7-6.6C209.3,342,208.1,337.3,206.7,337.2z
				"/>
			<path class="st24" d="M200.7,333.4c-0.4,0.4-0.8,4.4-4.1,8.6l4.8-0.1c0.9-1.1,2.1-7.1,1.7-8C202.7,332.9,201.3,332.9,200.7,333.4
				z"/>
			<path class="st24" d="M208.8,333.1c-0.4,0.3-3.3,3-6.1,6.3l3.2,0.9c0,0,4.5-5,4.5-6C210.5,333.3,209.4,332.7,208.8,333.1z"/>
			<path class="st24" d="M212.7,335.8c-0.5-0.1-4.1,2.8-7.4,5.6l3.1,1.3c0,0,5.3-4.3,5.5-5.1C214.2,336.6,213.3,335.8,212.7,335.8z"
				/>
			<path class="st24" d="M204.4,348.7c5.5-1.1,10.6-6.9,10.6-7.5c0-0.6-0.4-2.3-1.1-1.8c-0.8,0.5-4,3.5-5,3.7
				c-1,0.2-7.2,0.6-7.3,0.8C201.6,344,204.4,348.7,204.4,348.7z"/>
		</g>
		<g>
			<path class="st76" d="M183.1,311.9c0.1-0.7-0.2-1.2-0.6-1.2c-0.4,0-0.7,0.6-0.8,1.2c-0.1,0.7,0.2,1.2,0.6,1.2
				C182.7,313.1,183,312.6,183.1,311.9z"/>
			<path class="st89" d="M183.3,308.4l-2.5,0.2c-0.2,0-0.4,0.2-0.4,0.4l0.1,0.8c0,0.2,0.2,0.4,0.4,0.4l2.5-0.2
				c0.2,0,0.4-0.2,0.4-0.4l-0.1-0.8C183.7,308.5,183.5,308.4,183.3,308.4z"/>
			<path class="st76" d="M186.7,312.2c0-0.7-0.2-1.2-0.6-1.1c-0.4,0-0.7,0.6-0.8,1.2c0,0.7,0.2,1.2,0.6,1.1
				C186.4,313.4,186.7,312.8,186.7,312.2z"/>
			<path class="st89" d="M187.9,309.3l-2.1-1.1c-0.2-0.1-0.4,0-0.5,0.2l-0.3,0.8c-0.1,0.2,0,0.4,0.2,0.5l2.1,1.1
				c0.2,0.1,0.4,0,0.5-0.2l0.3-0.8C188.2,309.6,188.1,309.4,187.9,309.3z"/>
			<path class="st60" d="M184,312.7c1.2,1.6,1.7,2.6,1.2,3.1c-0.3,0.3-0.8,0.3-1.3,0.3l0,0c0,0,1.5,0.4,2-0.1
				C186.5,315.5,185.6,314.4,184,312.7z"/>
			<g>
				<path class="st60" d="M181.4,317l-0.4,0.6c0.1,0,1.7,1.2,4.6,0.9l-0.1-0.3C182.9,318.5,181.4,317,181.4,317z"/>
			</g>
			<path class="st60" d="M184.6,319.3c0,0.2-0.4,0.3-0.8,0.3c-0.4,0-0.8-0.2-0.8-0.4c0-0.2,0.4-0.3,0.8-0.3
				C184.3,319,184.6,319.2,184.6,319.3z"/>
		</g>
	</g>
	<g>
		<polygon class="st90" points="784.1,389 742.3,390 756.4,408.2 795.3,407 		"/>
		<path class="st51" d="M792.4,395.7c-0.3-2.3-14.1-0.2-13.7,2.1l1.9,13l13.7-2.1L792.4,395.7z"/>
		<path class="st91" d="M792.7,398.2c-1.2,1-3,1.7-5.1,1.7c-3.3,0-6-1.7-6.5-3.9c-1.5,0.5-2.6,1.2-2.5,1.8l1.9,13l13.7-2.1
			L792.7,398.2z"/>
		<path class="st92" d="M777.9,399c-1.1-2.2-12,2.1-10.9,4.4l6,12.5l10.9-4.4L777.9,399z"/>
		<path class="st93" d="M779.2,401.7c-1.5,0.4-3.3,0.6-5.2,0.6c-2.3,0-4.4-0.3-6-0.8c-0.8,0.7-1.3,1.4-1,1.9l6,12.5l10.9-4.4
			L779.2,401.7z"/>
		<polygon class="st70" points="787.8,401.5 755.6,406.6 757.3,454.1 793.7,454.1 		"/>
		<path class="st94" d="M801.2,415c4.6-27.8,9.2-44.4,12.4-44c5,0.7-2.1,41.3-2.1,41.3L801.2,415z"/>
		<path class="st95" d="M813.4,371.9c-1.2-0.2-2.6,2-4.1,6.2c-1.2,10-0.6,18,1.5,18.3c0.7,0.1,1.6-0.8,2.4-2.5
			c0.9-1.9,1.4-3.9,1.6-5.9C815.5,379.6,815.5,372.2,813.4,371.9z"/>
		<path class="st96" d="M808.6,398.3c0.2-2.5-14.5-3.6-14.7-1l-1,14l14.7,1L808.6,398.3z"/>
		<path class="st97" d="M802.8,399.8c-3.8,0-6.9-1.5-7.8-3.6c-0.7,0.2-1.2,0.5-1.2,1l-1,14l14.7,1l1-13.8
			C807.1,399.3,805.1,399.8,802.8,399.8z"/>
		<path class="st98" d="M823.9,401.1c0.5-2.3-13-5.3-13.6-3l-2.9,12.8l13.6,3L823.9,401.1z"/>
		<path class="st99" d="M810.4,398.1l-0.8,3.4c1.8,0.5,4.3,0.8,7.1,0.5c2.8-0.2,5.3-0.9,6.9-1.8C821.6,398.2,810.8,396,810.4,398.1z
			"/>
		<polygon class="st71" points="787.8,401.5 827.2,404.5 822.4,454.1 783.8,454.1 		"/>
		<polygon class="st90" points="769.3,430 755.6,406.6 769.7,433.2 787.8,401.5 		"/>
		<polygon class="st70" points="805.6,429.6 788,401.5 805.2,431.6 827.3,404.4 		"/>
		<polygon class="st70" points="805.8,431.7 822.4,454.1 806.1,429.4 783.6,454.2 		"/>
		<path class="st94" d="M811.8,392.3c0-0.5-1.2-1.2-2.7-1.4c-1.5-0.3-2.7-0.1-2.7,0.4c0,0.5,1.2,1.2,2.7,1.4
			C810.6,393,811.8,392.8,811.8,392.3z"/>
		<path class="st94" d="M812.8,387.2c-0.1-0.5-1.4-1-2.9-1.1c-1.5-0.1-2.7,0.3-2.6,0.8c0.1,0.5,1.4,1,2.9,1.1
			C811.7,388.1,812.8,387.7,812.8,387.2z"/>
		<path class="st94" d="M812.8,382.1c-0.1-0.5-1.1-0.9-2.3-1c-1.2-0.1-2.1,0.2-2.1,0.7c0.1,0.5,1.1,0.9,2.3,1
			C812,382.8,812.9,382.5,812.8,382.1z"/>
	</g>
	<path class="st85" d="M1131,453.2c0-2.8-240.3-0.2-538-0.2s-540.2-1.9-540.2,0.8c0,2.8,241.5,7.2,539.2,7.2S1131,456,1131,453.2z"
		/>
	<g>
		<path class="st100" d="M583.4,384.3l-40.9,32.6l-33,35.3c0,0,8.6-29,22.1-44.8c0,0,7.3-19.8,14.8-27.4
			C553.8,372.3,583.4,384.3,583.4,384.3z"/>
		<path class="st101" d="M556.3,402.8l24.7,13.1l-8.5,38.7c0,0,26.2-38.4,26.7-41.8c0.6-3.4-18.2-31.3-18.2-31.3l-27-3.7
			C554,377.8,550.8,396.5,556.3,402.8z"/>
		<path class="st100" d="M572.5,454.6c0,0,0.9-1.4,2.5-3.6l15.6-37.5c0,0-31.8-12.4-25-32.9c0.1-0.4,0.3-0.8,0.4-1.1l-12-1.6
			c0,0-3.1,18.8,2.3,25l24.7,13.1L572.5,454.6z"/>
		<g>
			<path class="st24" d="M596.8,301.8c0.3,1.1-1,6.1-2,8.8l-7.2-0.8c-0.7-4.8,2.5-9.4,3.6-9.3C592.3,300.6,596.5,300.7,596.8,301.8z
				"/>
			<path class="st24" d="M601.1,306.1c-0.2,0.4-3.5,1.5-6.3,5l-0.9-4c0.8-1,5.5-3,6.3-2.9C601.2,304.4,601.4,305.5,601.1,306.1z"/>
			<path class="st24" d="M599.8,299.3c-0.1,0.4-1.9,3.3-4,6.2l-1.4-2.5c0,0,3.3-4.6,4.1-4.9C599.3,297.9,600,298.7,599.8,299.3z"/>
			<path class="st24" d="M596.9,296.6c0.1,0.4-1.6,3.9-3.2,7.1l-1.7-2.4c0,0,2.5-5.2,3.2-5.5C595.9,295.5,596.7,296.1,596.9,296.6z"
				/>
			<path class="st24" d="M587.8,305.9c-0.1-4.8,3.7-10.1,4.2-10.2c0.5-0.1,1.9-0.1,1.7,0.6c-0.2,0.7-2.1,3.9-2.1,4.8
				c0,0.9,0.8,6.1,0.7,6.2C592.2,307.3,587.8,305.9,587.8,305.9z"/>
		</g>
		<path class="st101" d="M591.7,307.2c-2.6-0.6-5.1,0.3-5.7,2c-0.6,1.7,1.1,3.6,3.6,4.2s5.1-0.3,5.7-2
			C595.9,309.6,594.2,307.8,591.7,307.2z"/>
		<path class="st102" d="M586.4,308.4c0,0-21,17-31.3,47.3l32.3-16.9l7.9-27.1C593.8,307.4,590.4,307.3,586.4,308.4z"/>
		<path class="st103" d="M578.9,343c-5.4-2.9-4.9-14.4,1.2-25.7c1.8-3.3,3.8-6.2,5.9-8.6c-3.2,2.7-21.5,19.2-30.9,46.9l24-12.6
			C579,343.1,578.9,343.1,578.9,343z"/>
		<g>
			<path class="st104" d="M592.4,325.1c0-0.5,0.3-0.9,0.7-0.9c0.4,0,0.6,0.4,0.6,0.9c0,0.5-0.2,0.9-0.6,0.9
				C592.7,326,592.4,325.5,592.4,325.1z"/>
			<path class="st24" d="M592.6,326c1.1,1.8,1.5,3.3,1.2,3.6c-0.3,0.3-1.7,0.5-1.7,0.5L592.6,326z"/>
			<path class="st104" d="M586.9,318c0.6-1.6,2.8-2.2,4.8-1.3c2,0.8,3.1,2.7,2.5,4.3c-0.6,1.6-2.8,2.2-4.8,1.3
				C587.4,321.5,586.3,319.6,586.9,318z"/>
			<path class="st24" d="M592,320.7c2,1.7,0.5,13.8-0.1,14.5c-0.6,0.7-7.7-0.9-8.5-1.6c-0.9-0.8,1.9-11.3,2.7-13.3
				C586.9,318.2,590.3,319.3,592,320.7z"/>
			<path class="st23" d="M583.2,331.5c1,0.1,2.1,0.3,3.2,0.6c2.9,0.7,5.2,1.9,5.6,2.7c-0.1,0.2-0.1,0.3-0.2,0.4
				c-0.6,0.7-7.7-0.9-8.5-1.6C583.1,333.3,583.1,332.6,583.2,331.5z"/>
			<polygon class="st60" points="589.6,340.7 588.6,328.9 581.9,328.6 578.6,334.3 			"/>
			<path class="st104" d="M580.1,317c0,0-0.1-3,2.7-3.4c2.8-0.4,5.1,3.3,5.1,3.3c5.8,0.7,2.5,6.7,2.5,6.7c0.8,2.2-1.2,3.5-1.2,3.5
				c-0.1,0.7-0.1,1.7-0.2,2.7c0,1.4-1.3,2.4-2.6,2.2c-2.1-0.3-5-0.7-6.4,0.4c0,0-1.2-1-1.4-2.4c-0.3-2,0.4-3.9,0.4-3.9
				s-1.1-1.7-1-5.1C578,317.7,580.1,317,580.1,317z"/>
			<path class="st104" d="M590.9,318.9c1.4,3.9,0.5,10.2,0.5,10.2l-2-0.1l-1.2-5.7L590.9,318.9z"/>
			<path class="st24" d="M588.1,327.7c-0.2-1.3,0.2-2.4,0.9-2.5c0.7-0.1,1.3,0.9,1.5,2.2c0.2,1.3-0.2,2.4-0.9,2.5
				C589,330,588.3,329,588.1,327.7z"/>
			<path class="st60" d="M588.7,327.7c-0.1-0.9,0.2-1.6,0.6-1.7c0.4-0.1,0.9,0.6,1,1.4c0.1,0.9-0.2,1.6-0.6,1.7
				C589.3,329.2,588.8,328.6,588.7,327.7z"/>
			<path class="st24" d="M589.2,328.4c-0.1-0.5,0.1-0.9,0.3-1c0.3,0,0.5,0.3,0.6,0.8c0.1,0.5-0.1,0.9-0.3,1
				C589.5,329.3,589.3,328.9,589.2,328.4z"/>
		</g>
		<path class="st102" d="M543.2,383.9c5.6-23.5,23-45.7,27.8-48.2c2.7-1.4,9.8-2.3,16.2,0.4c5,2.2,13.1,7.5,13.5,15.6
			c0.4,8.4-11.3,17.9-15.3,36.4C566.4,380,554.9,378.1,543.2,383.9z"/>
		<path class="st103" d="M567.6,374c5.6-13.4,17.6-24.2,26.8-24.2c2.7,0,4.8,0.9,6.4,2.5c0-0.2,0-0.4,0-0.6
			c-0.1-2.3-4.5-14.2-7.7-13.3c-17.7,5.3-28.2-1.3-5.8-2.4c-6.4-2.7-13.5-1.9-16.2-0.4c-4.8,2.6-22.2,24.7-27.8,48.2
			c6.9-3.4,13.7-4.2,22-2.5C565.8,379,566.5,376.6,567.6,374z"/>
		<g>
			<path class="st24" d="M641.4,316.8c-1.2,0.3-5.5,4-7.7,6.3l4.4,6.7c5.1-1.6,8.1-7.1,7.4-8.2C644.8,320.6,642.6,316.5,641.4,316.8
				z"/>
			<path class="st24" d="M635.1,314.6c-0.3,0.4,0.2,4.2-1.9,8.7l4.4-1.1c0.6-1.2,0.3-6.9-0.2-7.7C636.7,313.7,635.5,314,635.1,314.6
				z"/>
			<path class="st24" d="M642.4,312.5c-0.3,0.3-2.4,3.5-4.2,7l3.1,0.1c0,0,3-5.6,2.8-6.4C644,312.4,642.9,312.1,642.4,312.5z"/>
			<path class="st24" d="M646.5,314.1c-0.5,0.1-3.1,3.5-5.5,6.7l3.2,0.5c0,0,3.9-5,3.9-5.9C648.1,314.6,647,314.1,646.5,314.1z"/>
			<path class="st24" d="M641.8,327.7c4.7-2.2,8.1-8.6,8-9.2c-0.1-0.6-0.8-2-1.4-1.4c-0.6,0.6-2.9,4-3.7,4.4
				c-0.9,0.4-6.4,2.1-6.4,2.3C638.2,324,641.8,327.7,641.8,327.7z"/>
		</g>
		<path class="st101" d="M639,324c-1.8-1.9-4.4-2.7-5.8-1.6c-1.4,1.1-1.2,3.5,0.6,5.5c1.8,1.9,4.4,2.7,5.8,1.6
			C641.1,328.4,640.8,325.9,639,324z"/>
		<path class="st102" d="M594.8,365.5c14.4-12.4,45-35.6,45-35.6c1.1-4.5-4.3-8.3-7.2-7.5l-40.5,16.5
			C592.1,338.8,584.5,349.2,594.8,365.5z"/>
		<path class="st103" d="M610.1,331.5c-3.1,1.3-5.7,2.5-16,6.6l-1.9,0.8c0,0-6.2,5.7-5.7,13.2C600.5,347.6,609,333.8,610.1,331.5z"
			/>
		<path class="st49" d="M582,455.1h-10.9c0,0,2.6-4.3,4-4.4C576.4,450.6,582,455.1,582,455.1z"/>
		<path class="st49" d="M513.4,455.1h-6.5l0.5-5.5c0,0,3.2-1.9,4.8-2c0.8-0.1-1.5,3-1.4,4.9C511,454.3,513.4,455.1,513.4,455.1z"/>
	</g>
	<g>
		<path class="st85" d="M412.9,546.6c0-3.1-54.5-0.3-122-0.3c-67.5,0-122.5-2.2-122.5,0.9s54.8,8.1,122.3,8.1
			C358.2,555.4,412.9,549.7,412.9,546.6z"/>
		<g>
			<path class="st105" d="M323.2,461.1c0.2-1.7-2.6-4-13.2-4.6c-10.6-0.6-14.2,1.3-14.4,3c-0.2,1.7,2.6,3.2,13.2,3.8
				C319.5,463.9,323,462.8,323.2,461.1z"/>
			<path class="st106" d="M258.3,464.8c3.6-2.9,5.7-2.7,5.5-1.1c-0.2,1.6-4.3,3.1-4.3,3.1L258.3,464.8z"/>
			<polygon class="st107" points="374.6,527.9 354.6,527.9 354.6,551.1 372,551.1 			"/>
			<path class="st108" d="M364.7,536c-4,0-7.5-0.8-10.1-2.2v17.2H372l1.9-16.8C371.4,535.3,368.2,536,364.7,536z"/>
			
				<ellipse transform="matrix(0.1898 -0.9818 0.9818 0.1898 -227.4834 803.2581)" class="st109" cx="373" cy="539.5" rx="11.8" ry="6.3"/>
			<polygon class="st70" points="364.8,478.5 342.4,502.7 381.4,494 			"/>
			<path class="st110" d="M295.1,483.5l0.7-24.4c9.9-2.1,19.1-2.3,26.7,1.5l0.8,24.3L295.1,483.5z"/>
			<path class="st105" d="M312.6,473.6c-8.2-2-14.1-7.8-13-13.1c0.2-0.8,0.5-1.5,0.9-2.2c-1.5,0.2-3.1,0.5-4.7,0.8l-0.7,24.4
				l28.3,1.4l-0.4-11.5C320.1,474.4,316.4,474.5,312.6,473.6z"/>
			<path class="st111" d="M299.2,480l0.6-16.6c7.5-1.4,14.5-1.6,20.3,1l0.6,16.6L299.2,480z"/>
			<path class="st112" d="M334.6,483.2c0,0,13.2-46.1,18.5-47.7s8.7,3,8.7,7.8c0,4.9-11.8,42.6-11.8,42.6L334.6,483.2z"/>
			<path class="st102" d="M361.9,443.3c0-4.8-3.3-9.3-8.5-7.9c-1.5,3-2.9,6.5-4.2,10.3c-4.6,14.1-4.7,27-0.2,28.8
				c1.5,0.6,3.2-0.1,5.1-1.8C357.5,461.4,361.9,446.3,361.9,443.3z"/>
			<path class="st113" d="M354.3,469.6c3-10.2,6.5-22.3,6.5-24.9c0-2.8-1.1-5.4-3.2-6.7c-0.7,1.8-1.4,3.6-2,5.5
				C351.7,455.4,351.3,466.4,354.3,469.6z"/>
			<path class="st112" d="M353.4,466.5c0.3-1.2-2-2.8-5-3.6c-3-0.8-5.7-0.5-6,0.7c-0.3,1.2,2,2.8,5,3.6
				C350.5,468,353.1,467.7,353.4,466.5z"/>
			<path class="st112" d="M355.4,458.4c0.2-1-1.6-2.3-4.1-2.9c-2.5-0.7-4.6-0.4-4.8,0.6c-0.2,1,1.6,2.3,4.1,2.9
				C353.1,459.6,355.2,459.4,355.4,458.4z"/>
			<path class="st112" d="M357.1,449c0.2-0.8-1.3-1.8-3.2-2.3c-1.9-0.5-3.6-0.3-3.8,0.4c-0.2,0.8,1.3,1.8,3.2,2.3
				C355.2,450,356.9,449.8,357.1,449z"/>
			<path class="st114" d="M344.4,469.6c-6.4-4.1-13.3-3.3-19.1-0.7v19.4l18.2,0.5L344.4,469.6z"/>
			<path class="st115" d="M344.1,469.5c0,0.1,0,0.2,0,0.3c0,3-4,5.5-9,5.5c-5,0-9-2.4-9-5.5c0-0.5,0.1-0.9,0.3-1.3
				c-0.4,0.1-0.7,0.3-1.1,0.5v19.4l18.2,0.5l0.9-19.2C344.3,469.6,344.2,469.5,344.1,469.5z"/>
			<path class="st116" d="M344.4,470.3l0-1c-6.4-4.1-13.3-3.3-19.1-0.7v1.1C331.2,467.1,337.9,466.4,344.4,470.3z"/>
			<path class="st117" d="M263,463.9c-11.4-0.1-15.8,9.3-15.7,10l11.2,16.1l18.6-8.5C271.7,473.2,263,463.9,263,463.9z"/>
			<path class="st118" d="M258.4,464.4c-5.1,1.3-8.3,4.6-9.9,7c3.4,6.2,8.1,9.4,10.6,7.3C261.4,476.6,261,470.5,258.4,464.4z"/>
			<path class="st119" d="M269,474c-2.7-3.7-5-6.5-5-6.5c-9.1-0.1-12.9,8.1-12.8,8.8l4.2,6.9C256.6,480.6,260.9,474.4,269,474z"/>
			<path class="st112" d="M261,441.4c-8.8,0.6,8.4,33.1,23.5,61.1l12.2-16.7C287.6,466.4,269.8,440.8,261,441.4z"/>
			<path class="st102" d="M289.1,475.2c0.5-0.4,0.9-1,1.2-1.7c-9.5-16.4-22.2-32.6-29.2-32.1c-1.6,0.1-2.3,1.2-2.4,3.2
				c1.7,4.1,4.1,8.6,7.1,13.1C274.6,470.7,285,478.5,289.1,475.2z"/>
			<path class="st113" d="M282.3,462.4c-7.9-11.4-16.3-20.3-21.5-19.9c-0.3,0-0.5,0.1-0.7,0.2c0.3,0.5,0.7,1,1,1.5
				C268.6,455.4,277.4,462.7,282.3,462.4z"/>
			<polygon class="st120" points="270.9,477.3 235.4,491.9 245.5,551.1 278.1,551.1 			"/>
			<g>
				<polygon class="st121" points="272,488.1 270.9,477.3 235.4,491.9 241.5,527.7 				"/>
				<polygon class="st121" points="277.8,551.1 278.1,551.1 278.1,550.7 				"/>
			</g>
			<polygon class="st71" points="364.8,478.5 270.9,477.3 276,551.1 357.1,551.1 			"/>
			<polygon class="st71" points="235.4,491.9 223.6,506 256.2,498.7 270.9,477.3 			"/>
			<path class="st122" d="M260.3,517.8c-9.6-1.4-19.1-1.2-28.5,0v33.3h28.5L260.3,517.8z"/>
			<path class="st123" d="M259.5,528.4c-8.4-0.9-16.7-0.7-24.9,0v20.5h24.9V528.4z"/>
			<path class="st124" d="M247.6,545.4c1.8-2.7,1.3-6.5-1.2-8.7c-2.5-2.1-6.1-1.7-7.9,1c-1.8,2.7-1.3,6.5,1.2,8.7
				C242.2,548.5,245.8,548,247.6,545.4z"/>
			<path class="st124" d="M252.5,547.1c2.3-1,3.4-4,2.5-6.6c-0.9-2.6-3.4-3.9-5.7-2.9c-2.3,1-3.4,4-2.5,6.6
				C247.7,546.8,250.2,548.1,252.5,547.1z"/>
			<path class="st125" d="M253.2,537.4c-2.3-0.5-0.2-3.9-0.2-3.9S255.6,537.9,253.2,537.4z"/>
			<path class="st125" d="M240.1,534.7c-1.8,2.5-4.2-1.9-4.2-1.9S242,532.1,240.1,534.7z"/>
			<path class="st125" d="M254.5,537.6c0.4-2.5,3.6-0.4,3.6-0.4S254,540.2,254.5,537.6z"/>
			<path class="st125" d="M241.9,534.2c-1-3,3.6-3,3.6-3S242.9,537.2,241.9,534.2z"/>
			<path class="st112" d="M284.2,465.1c-0.5-1.1-2.9-0.5-5.3,1.4c-2.4,1.8-4,4.2-3.5,5.3c0.5,1.1,2.9,0.5,5.3-1.4
				C283.1,468.5,284.7,466.1,284.2,465.1z"/>
			<path class="st112" d="M277.8,457.1c-0.5-1.1-2.8-0.5-5.1,1.2c-2.3,1.7-3.8,4-3.3,5.1c0.5,1.1,2.8,0.5,5.1-1.2
				C276.8,460.4,278.3,458.1,277.8,457.1z"/>
			<path class="st112" d="M271.8,450.2c-0.5-1.1-2.4-1.2-4.3-0.4s-3.1,2.5-2.6,3.5c0.5,1.1,2.4,1.2,4.3,0.4S272.2,451.3,271.8,450.2
				z"/>
			<path class="st119" d="M263.8,464.2c-0.1-0.1-0.2-0.2-0.3-0.3c-0.2-0.2-0.4-0.3-0.6-0.3c-10.2,0.1-14.9,7.6-15.8,9.9
				c-0.1,0.3-0.1,0.7,0.1,1l0.1,0.1C248,472.4,252.9,464.3,263.8,464.2z"/>
			<path class="st126" d="M260.3,519.2v-1c-7.3-1.1-14.3-1.2-21.5-0.6c0-0.2,0-0.3,0-0.5c-2.4,0.2-4.7,0.4-7.1,0.7v33.3h28.5l0-17.3
				c-2.1,6.2-5.7,10.2-9.7,10.2c-6.5,0-11.8-10.6-11.8-23.6c0-0.6,0-1.1,0-1.7C246,518.1,253,518.2,260.3,519.2z"/>
			<path class="st127" d="M261.3,517.9L261.3,517.9c0-0.3-0.2-0.5-0.4-0.6c-10-1.4-19.8-1.2-29.5,0c-0.3,0-0.5,0.3-0.5,0.6v0
				c0,0.3,0.3,0.6,0.6,0.6c9.6-1.1,19.4-1.4,29.2,0C261,518.5,261.3,518.2,261.3,517.9z"/>
			<polygon class="st70" points="316.1,523.7 270.9,477.3 315.4,526.7 364.8,478.5 			"/>
			<path class="st128" d="M378.4,539.5c0.8-5.8-1.1-10.6-4.3-10.6c-3.2,0-6.4,4.7-7.2,10.6c-0.8,5.8,1.1,10.6,4.3,10.6
				S377.6,545.4,378.4,539.5z"/>
			<path class="st129" d="M374.1,529.7c-1,0-2,0.5-2.9,1.5c-0.6,5,1.1,9.1,3.8,9.1c1,0,2-0.5,2.9-1.5
				C378.6,533.8,376.9,529.7,374.1,529.7z"/>
			<path class="st128" d="M373.9,530.1c-2.2,0-4.5,2.6-5.7,6.2c1.3-3.3,3.4-5.6,5.5-5.6c2.8,0,4.6,4.2,3.9,9.3
				c0-0.2,0.1-0.4,0.1-0.5C378.5,534.4,376.7,530.1,373.9,530.1z"/>
			<path class="st128" d="M373.7,533c-1.6,0-3.1,1.8-4,4.3c0.9-2.3,2.4-3.9,3.9-3.9c2,0,3.2,2.9,2.8,6.5c0-0.1,0-0.2,0.1-0.4
				C376.9,536,375.7,533,373.7,533z"/>
			<path class="st109" d="M371.4,548.7c2.2,0,4.5-2.6,5.7-6.2c-1.3,3.3-3.4,5.6-5.5,5.6c-2.8,0-4.6-4.2-3.9-9.3
				c0,0.2-0.1,0.4-0.1,0.5C366.9,544.5,368.6,548.7,371.4,548.7z"/>
			<path class="st109" d="M372,545c1.4,0,2.7-1.6,3.4-3.8c-0.8,2-2.1,3.4-3.3,3.4c-1.7,0-2.8-2.5-2.4-5.7c0,0.1,0,0.2-0.1,0.3
				C369.3,542.4,370.3,545,372,545z"/>
			<path class="st128" d="M369.5,529.1c-0.1-0.5-1.8-0.7-3.7-0.6c-2,0.2-3.5,0.7-3.4,1.2c0.1,0.5,1.8,0.7,3.7,0.6
				C368.1,530.1,369.6,529.6,369.5,529.1z"/>
			<polygon class="st111" points="351.6,534.2 331.5,534.4 330.7,547.9 350.8,547.7 			"/>
			<polygon class="st111" points="364.8,478.5 270.9,477.3 314.2,480.3 			"/>
		</g>
	</g>
	<g>
		<defs>
			<rect id="SVGID_00000079477266657430487860000008691674250743063427_" width="250" height="436.2"/>
		</defs>
		<clipPath id="SVGID_00000029745536985234455750000007991482364478343852_">
			<use xlink:href="#SVGID_00000079477266657430487860000008691674250743063427_"  style="overflow:visible;"/>
		</clipPath>
		<g style="clip-path:url(#SVGID_00000029745536985234455750000007991482364478343852_);">
			<path class="st2" d="M48.1,114.9l-30.5,2.4c0,0-4.4,37.4,29.7,78.7l30.1-17.8C54,154.3,46.8,124.1,48.1,114.9z"/>
			<path class="st3" d="M48,162.3c4.9-3.5,6.4-10.4,3.3-15.5c-3.1-5.2-9.8-6.6-14.8-3c-5,3.6-6.3,10.7-3,15.7
				C36.7,164.6,43.1,165.8,48,162.3z"/>
			<path class="st3" d="M56.3,160.3c3.3,6.1,7.5,12.4,13.1,18.6l3.1-1.4c-5.4-6.2-9.8-12.5-13.3-18.6L56.3,160.3z"/>
			<path class="st3" d="M43.1,121.7c0.3,4.2,1,8.9,2.5,13.9l2.1,0.1c-1.4-5-2.2-9.7-2.6-14L43.1,121.7z"/>
			<g>
				<path class="st3" d="M25.7,146.6c-2.4-9.3-3.4-18.4-3.2-27l-3.1,1.5c0.1,8.5,1.4,17.4,4.1,26.5L25.7,146.6z"/>
				<path class="st3" d="M49.9,192.1c-7.3-8.8-13-17.7-17.2-26.6l-2,0.8c4.3,9.2,10,18.4,17.1,27.5L49.9,192.1z"/>
			</g>
		</g>
		<g style="clip-path:url(#SVGID_00000029745536985234455750000007991482364478343852_);">
			<path class="st2" d="M51.4,361.4l12,22.3c0,0,29.9-9.2,49.8-48.9l-23.6-16.9C79.2,343.7,58.8,359.2,51.4,361.4z"/>
			<path class="st3" d="M87.4,345.6c-4.3-2.5-10-1.4-12.8,2.7c-2.9,4.1-1.7,9.7,2.7,12.3c4.4,2.6,10.2,1.2,13-3
				C92.9,353.4,91.6,348.1,87.4,345.6z"/>
			<path class="st3" d="M83,339.9c3.5-4.6,6.9-9.8,9.7-16.1l-2.1-1.9c-2.9,6.2-6.2,11.6-9.6,16.3L83,339.9z"/>
			<path class="st3" d="M58.2,362.9c3.1-1.6,6.4-3.7,9.7-6.5l-0.6-1.6c-3.3,2.7-6.6,4.9-9.7,6.7L58.2,362.9z"/>
			<g>
				<path class="st3" d="M82.9,367.7c-6.2,5-12.8,8.7-19.4,11.5l2.1,1.9c6.4-2.9,12.7-6.9,18.7-12L82.9,367.7z"/>
				<path class="st3" d="M109.4,334.2c-4.2,8.5-9.1,15.8-14.4,22l1.3,1.3c5.5-6.4,10.6-13.8,15.1-22.2L109.4,334.2z"/>
			</g>
		</g>
		<path style="clip-path:url(#SVGID_00000029745536985234455750000007991482364478343852_);fill:#E79B69;" d="M156.6,277.7
			c13.5-6.6,20.7-15.3,22.2-19.3c1.5-4.1,4.9-17.8,3.2-19.9c-1.7-2-8.5-2.7-9.9-0.9c-1.4,1.8-6.7,18.4-9.2,20.5
			c-2.5,2.1-10.9,5.9-13.4,7.6C147.1,267.2,153.3,279.3,156.6,277.7z"/>
		<path style="clip-path:url(#SVGID_00000029745536985234455750000007991482364478343852_);fill:#E79B69;" d="M145,275.3
			c11.7-6.9,17.6-15.2,18.6-18.9c1.1-3.7,3.2-16.4,1.5-18.1c-1.7-1.7-7.8-1.8-8.9-0.1c-1.2,1.7-4.7,17-6.9,19.1s-9.4,6.1-11.5,7.7
			C135.7,266.6,142.1,277,145,275.3z"/>
		<path style="clip-path:url(#SVGID_00000029745536985234455750000007991482364478343852_);fill:#EDB984;" d="M114.1,283.7
			c32.2,10,50.9-6,56.3-9.3c5.4-3.3,7.8-14.7-0.3-16.8c-8.1-2.1-40.1,2.7-49.4-2.4C111.4,250.2,100.6,279.5,114.1,283.7z"/>
		<path style="clip-path:url(#SVGID_00000029745536985234455750000007991482364478343852_);fill:#E79B69;" d="M120.7,255.3
			c-4.6-2.5-9.5,3.3-11.7,10.4c1,1.7,2.5,3,4.7,3.7c32.2,10,50.9-6,56.3-9.3c0.7-0.4,1.3-1,1.9-1.6c-0.5-0.3-1.1-0.6-1.8-0.7
			C162,255.6,130,260.4,120.7,255.3z"/>
		<path style="clip-path:url(#SVGID_00000029745536985234455750000007991482364478343852_);fill:#E79B69;" d="M90.7,126.6
			c18.1,16.4,36.2,27.3,41.9,24.9c5.7-2.5,27.8-29.8,24.6-36.3c-3.2-6.5-44.6-22.1-44.6-22.1L90.7,126.6z"/>
		<path style="clip-path:url(#SVGID_00000029745536985234455750000007991482364478343852_);fill:#A59F30;" d="M188.3,89.6
			l-28.2-12.3l-28.4-4.8c5.5,30.6-4.8,57.8-30.5,69.4l16.4,22.7l5.9,2.3C148.1,153.7,184.1,113.6,188.3,89.6z"/>
		<path style="clip-path:url(#SVGID_00000029745536985234455750000007991482364478343852_);fill:#BCB83B;" d="M171.4,89l-39.8-16.5
			c-3.4,33.2-13.6,54.5-37.2,67.5l23.1,24.7C139.9,150.1,170.7,113.7,171.4,89z"/>
		<path style="clip-path:url(#SVGID_00000029745536985234455750000007991482364478343852_);fill:#A59F30;" d="M136.9,80l-3.4-1.4
			c-3.1,29.7-12.2,48.7-33.3,60.4l3.2,3.4C124.1,129.9,133.5,110.1,136.9,80z"/>
		<path style="clip-path:url(#SVGID_00000029745536985234455750000007991482364478343852_);fill:#A59F30;" d="M167.2,92.8l-3.9-0.7
			c-8,29.6-21.2,49-46.7,64.3l3.2,3.1C144.4,143.3,159,122.3,167.2,92.8z"/>
		
			<ellipse transform="matrix(6.820767e-02 -0.9977 0.9977 6.820767e-02 6.6809 246.9107)" style="clip-path:url(#SVGID_00000029745536985234455750000007991482364478343852_);fill:#A59F30;" cx="135.5" cy="119.9" rx="14.1" ry="14.2"/>
		<polygon style="clip-path:url(#SVGID_00000029745536985234455750000007991482364478343852_);fill:#F4E8D3;" points="112.9,127.4 
			132.9,151.8 142.4,156 166.8,130.2 157,123.4 124.4,103.3 		"/>
		<path style="clip-path:url(#SVGID_00000029745536985234455750000007991482364478343852_);fill:#EDDEC3;" d="M156.6,123.1
			l-32.3-19.8c-4.7,9.1-9.7,17.8-15.7,25.4l23,21.7L156.6,123.1z"/>
		<path style="clip-path:url(#SVGID_00000029745536985234455750000007991482364478343852_);fill:#EDB984;" d="M158.1,118.6
			c2.5-0.8,14.3,5.6,14.6,8.5c0.3,2.9-1.7,11.6-6.2,11.6s-12.5-5.4-13.5-7.9C151.7,127.1,155.6,119.4,158.1,118.6z"/>
		<path style="clip-path:url(#SVGID_00000029745536985234455750000007991482364478343852_);fill:#EDB984;" d="M147,134
			c2.7-0.6,13.5,5.9,13.3,8.6c-0.2,2.7-3.7,10.6-8.2,10.3c-4.5-0.2-11.7-5.6-12.2-8C139.1,141.5,144.4,134.6,147,134z"/>
		<path style="clip-path:url(#SVGID_00000029745536985234455750000007991482364478343852_);fill:#EDB984;" d="M133.7,145.2
			c2.7-0.4,13.4,6.2,13.2,8.6c-0.2,2.4-3.7,9.3-8.2,8.8s-11.6-5.8-12.1-8C125.8,151.5,131,145.6,133.7,145.2z"/>
		<path style="clip-path:url(#SVGID_00000029745536985234455750000007991482364478343852_);fill:#EDB984;" d="M113.1,93.9
			c14.8-3.2,34,5.4,36.7,9.1c2.8,3.7-5,27.2-10.1,30.9c-5.1,3.7-10.7,0.4-11.7-4.8c-1-5.2,2.6-13.5,2.6-13.5l-1.8-1.2
			c0,0-17.7,24.1-27.2,4.6C95.2,105.8,113.1,93.9,113.1,93.9z"/>
		<polygon style="clip-path:url(#SVGID_00000029745536985234455750000007991482364478343852_);fill:#EDDEC3;" points="91,127.3 
			114.7,93.3 99.1,82.9 75.4,117 		"/>
		<polygon style="clip-path:url(#SVGID_00000029745536985234455750000007991482364478343852_);fill:#EDDEC3;" points="113.3,289.9 
			120.5,248.7 104.5,246.5 97.3,287.6 		"/>
		<path style="clip-path:url(#SVGID_00000029745536985234455750000007991482364478343852_);fill:#5F739B;" d="M111.7,243.7
			c0,0-113.7-19.1-169.6-80.3c-10,30.4-8.4,59,10.8,84.7c40.8,32.5,104.7,43.8,148.7,42.6L111.7,243.7z"/>
		<path style="clip-path:url(#SVGID_00000029745536985234455750000007991482364478343852_);fill:#6D87AF;" d="M101.6,290.7l10.1-47
			c0,0-93.9-15.8-153-64.6c7,23.9,30.4,53.5,64.1,77.8c24.6,17.7,50.2,29.3,71.8,33.9C97,290.8,99.4,290.8,101.6,290.7z"/>
		<path style="clip-path:url(#SVGID_00000029745536985234455750000007991482364478343852_);fill:#4A6084;" d="M-63.1,210.6
			c1.9,13,7.1,25.5,16,37.4c40.8,32.5,104.7,43.8,148.7,42.6l5.2-24.1C29,270.4-60.5,215.8-63.1,210.6z"/>
		<path style="clip-path:url(#SVGID_00000029745536985234455750000007991482364478343852_);fill:#784CA5;" d="M111,85.6
			c0,0-68.9-49.3-70.6-126.6c-27.5-10.6-52-10.2-71.9,7.2C-23.5,37.9,23.7,97.7,82.6,126L111,85.6z"/>
		<path style="clip-path:url(#SVGID_00000029745536985234455750000007991482364478343852_);fill:#673E93;" d="M87.3,119.2
			c-27.3-8-55.2-40.7-69.1-84.9c-9.4-30-10.6-59.3-4.8-82c-16.7-1.6-31.8,2.5-45,14C-23.5,37.9,23.7,97.7,82.6,126L87.3,119.2z"/>
		<g style="opacity:0.33;clip-path:url(#SVGID_00000029745536985234455750000007991482364478343852_);">
			<path class="st143" d="M84.5,123l1.7-2.5C33.5,95.8-14.4,39.3-25.3-38.6c-1.2,0.8-2.5,1.7-3.7,2.6C-18.9,42.6,30.5,99.4,84.5,123
				z"/>
			<path class="st143" d="M89.6,115.5l1.8-2.6c-49.9-26.2-94-82.1-103.3-158c-1.3,0.4-2.5,0.9-3.8,1.4
				C-7.4,33.5,38.2,90.2,89.6,115.5z"/>
			<path class="st143" d="M94.9,107.8l1.9-2.8C50.6,78,10.8,24.1,2-47.9c-1.3,0.1-2.6,0.2-3.9,0.4C5.6,26.3,47,81.4,94.9,107.8z"/>
			<path class="st143" d="M100.4,99.9l2-2.9C60.4,69.7,25,19.1,16-47.5c-1.4-0.2-2.7-0.3-4.1-0.4C19.7,20.9,56.6,73,100.4,99.9z"/>
			<path class="st143" d="M106,91.8l2.1-3C70.8,61.9,39.9,15.5,30.4-44.6c-1.5-0.4-2.9-0.8-4.3-1.1C34.4,16.9,66.9,64.9,106,91.8z"
				/>
		</g>
		<path style="clip-path:url(#SVGID_00000029745536985234455750000007991482364478343852_);fill:#C9BBA3;" d="M62.6,100.7
			c3.9,0.3,7.2-2.2,7.4-5.6c0.2-3.3-2.7-6.3-6.6-6.5c-3.9-0.3-7.2,2.2-7.4,5.6C55.8,97.6,58.7,100.5,62.6,100.7z"/>
		<path style="clip-path:url(#SVGID_00000029745536985234455750000007991482364478343852_);fill:#C9BBA3;" d="M78,110
			c3.1,0.2,5.7-1.8,5.9-4.5s-2.2-5-5.3-5.2c-3.1-0.2-5.7,1.8-5.9,4.5S75,109.7,78,110z"/>
		<path style="clip-path:url(#SVGID_00000029745536985234455750000007991482364478343852_);fill:#FFD85A;" d="M121.9,263.9l0.1-0.7
			c0.6-4.1,3.6-7.4,7.6-8.3l0,0l0-4.9c4.1-3.7,12.2-7,18.7-7l0.9,3.5c3.6-0.9,6.8-0.6,10.5,0.4l0.5,2.5h0c4.9-0.3,9.3,3.3,9.9,8.2
			l0.1,1.2C170.1,258.7,145.5,275.3,121.9,263.9z"/>
		<path style="clip-path:url(#SVGID_00000029745536985234455750000007991482364478343852_);fill:#EDB984;" d="M155,282.6
			c14.2-4.9,22.5-12.6,24.4-16.5c2-3.8,7.1-17.1,5.6-19.3c-1.5-2.2-8.1-3.7-9.7-2.1c-1.6,1.6-8.9,17.4-11.7,19.2
			c-2.8,1.8-12.3,5.8-14.9,7.1S151.6,283.8,155,282.6z"/>
		<path style="clip-path:url(#SVGID_00000029745536985234455750000007991482364478343852_);fill:#EDB984;" d="M125.1,285.3
			c-10.1-3.6-7.8-13-2.5-18.6c5.2-5.6,22.2-6.5,27.6-10.8c5.4-4.3,8.8-5.4,11.5-4.5c2.7,0.9,5.9,5.1,2.8,8
			c-3,2.9-19.3,11.9-23.5,18.5C136.8,284.5,130,287.1,125.1,285.3z"/>
		<path style="clip-path:url(#SVGID_00000029745536985234455750000007991482364478343852_);fill:#F4A240;" d="M153.8,231.3
			c0.5-3-3.8-6.1-9.7-7.1c-5.8-0.9-10.9,0.7-11.4,3.6c-0.5,3,3.8,6.1,9.7,7.1C148.2,235.9,153.3,234.2,153.8,231.3z"/>
		<path style="clip-path:url(#SVGID_00000029745536985234455750000007991482364478343852_);fill:#FFD85A;" d="M154,229.6
			c0.5-3-3.8-6.1-9.7-7.1c-5.8-0.9-10.9,0.7-11.4,3.6c-0.5,3,3.8,6.1,9.7,7.1C148.4,234.2,153.5,232.5,154,229.6z"/>
		
			<ellipse transform="matrix(0.9369 -0.3496 0.3496 0.9369 -77.4532 64.1277)" style="clip-path:url(#SVGID_00000029745536985234455750000007991482364478343852_);fill:#FFE578;" cx="138.9" cy="246.6" rx="10" ry="3"/>
		<path style="clip-path:url(#SVGID_00000029745536985234455750000007991482364478343852_);fill:#F4A240;" d="M146.3,243.6
			c-0.5-1.1-4.2-0.7-8.4,0.9c-4.2,1.6-7.1,3.8-6.7,4.9s4.2,0.7,8.4-0.9C143.8,246.9,146.8,244.7,146.3,243.6z M139.6,248.4
			c-4,1.5-7.5,2-8,1c-0.4-1,2.5-3,6.4-4.5c4-1.5,7.5-2,8-1C146.5,244.8,143.6,246.9,139.6,248.4z"/>
		<path style="clip-path:url(#SVGID_00000029745536985234455750000007991482364478343852_);fill:#F4A240;" d="M149.1,246.3
			c0,0-1.4,4.5-7.7,7.8c0,0,6.1-1.7,8.6-7.9L149.1,246.3z"/>
		<path style="clip-path:url(#SVGID_00000029745536985234455750000007991482364478343852_);fill:#F4A240;" d="M129.5,254.9
			c0,0,3.5,3.1,10.4,2.9c0,0-6,1.4-11.2-2.7L129.5,254.9z"/>
		<path style="clip-path:url(#SVGID_00000029745536985234455750000007991482364478343852_);fill:#F4A240;" d="M144.2,223.8
			c-4.5-0.7-8.5,0.4-8.8,2.6c-0.4,2.2,3,4.5,7.6,5.3c4.5,0.7,8.5-0.4,8.8-2.6C152.1,226.9,148.7,224.6,144.2,223.8z M151.3,229.2
			c-0.3,2.1-4.1,3.2-8.4,2.5c-4.3-0.7-7.5-2.9-7.2-5c0.3-2.1,4.1-3.2,8.4-2.5S151.6,227.2,151.3,229.2z"/>
		<g style="clip-path:url(#SVGID_00000029745536985234455750000007991482364478343852_);">
			<path class="st18" d="M140.5,229.2C140.5,229.3,140.5,229.3,140.5,229.2c-0.1,0.1-0.2,0.1-0.2,0.1c-0.4,0-0.7,0-0.8-0.1
				c-0.1,0-0.2-0.1-0.3-0.2c-0.1-0.6-0.5-1.2-1.1-1.9c-0.1-0.1-0.1-0.2-0.1-0.2c0-0.1,0.1-0.2,0.2-0.2c0.8,0,1.2,0.1,1.8,0.1
				l1.4,0.1l1.1,0.1l0.9,0c0.2,0,0.7,0,1.3,0.1c0.5,0,2.1,0.1,2.8,0.1c0-0.7,0-1,0.1-1l0.6,0c0.2,0,0.3,0.1,0.3,0.2
				c0,0.3,0,0.5,0,0.6c0,0.1,0,0.3,0,0.5c0.1,0.3,0.1,0.7,0.2,1.1c0,0.1,0,0.2,0,0.3c0,0.2,0.1,0.4,0.1,0.7c0,0.1-0.1,0.1-0.4,0.1
				c0,0-0.1,0-0.1,0c-0.2,0-0.3-0.1-0.4-0.1c-0.1-0.4-0.3-0.7-0.4-1c0-0.3-0.1-0.4-0.4-0.5c-0.2,0-0.5,0-0.6,0c-0.2,0-0.5,0-0.9,0
				l-1.4-0.1c-0.5,0-1-0.1-1.4-0.1c-0.3,0-0.5,0-0.8,0c-0.3,0-0.5,0-0.8-0.1l-1.5-0.1l0.5,1.1C140.4,229,140.5,229.1,140.5,229.2z"
				/>
		</g>
		<g style="clip-path:url(#SVGID_00000029745536985234455750000007991482364478343852_);">
			<path class="st18" d="M137.4,248.1C137.4,248.2,137.4,248.2,137.4,248.1c0,0.1-0.1,0.1-0.1,0.1c-0.3,0.1-0.5,0.2-0.6,0.3
				c-0.1,0-0.2,0-0.3,0c-0.4-0.2-1-0.3-1.8-0.3c-0.1,0-0.1,0-0.2,0c-0.1,0-0.1-0.1,0-0.1c0.6-0.3,0.9-0.4,1.4-0.6l1.1-0.5l0.8-0.4
				l0.7-0.3c0.2-0.1,0.5-0.2,1-0.5c0.4-0.2,1.6-0.7,2-1c-0.4-0.2-0.5-0.4-0.5-0.4l0.5-0.2c0.2-0.1,0.3-0.1,0.4,0
				c0.2,0.1,0.3,0.2,0.3,0.2c0.1,0.1,0.1,0.1,0.2,0.2c0.2,0.1,0.4,0.2,0.7,0.3c0.1,0,0.1,0.1,0.2,0.1c0.1,0.1,0.3,0.1,0.4,0.2
				c0,0-0.1,0.1-0.2,0.2c0,0-0.1,0-0.1,0c-0.2,0.1-0.3,0.1-0.3,0.1c-0.3-0.1-0.6-0.2-0.8-0.2c-0.2-0.1-0.3-0.1-0.5,0
				c-0.2,0.1-0.3,0.2-0.5,0.2c-0.1,0.1-0.4,0.2-0.6,0.3l-1,0.5c-0.4,0.2-0.8,0.3-1,0.5c-0.2,0.1-0.4,0.2-0.6,0.3
				c-0.2,0.1-0.4,0.2-0.6,0.3l-1.1,0.5l0.9,0.2C137.2,248.1,137.3,248.1,137.4,248.1z"/>
		</g>
	</g>
	<g>
		<path class="st51" d="M670.9,132.7c0,0-4.3-17.9-9.2-15.4c-3.3,1.7,0,8.4,0,8.4s-4.7-2.3-7.2,1.3
			C652,130.7,659.4,133.2,670.9,132.7z"/>
		<path class="st51" d="M720.6,52.1c-3.2-0.9-5,5.5-5,5.5s-1.7-4.3-5.5-3.3c-3.8,1-0.4,7,7.5,13.4C717.6,67.7,725.3,53.4,720.6,52.1
			z"/>
		<path class="st51" d="M796.4,116.9c-1.5-2.2-6.1,0.8-6.1,0.8s1.2-3.6-1.7-5c-2.9-1.4-4,4.2-2.5,12.4
			C786.2,125,798.7,120.1,796.4,116.9z"/>
	</g>
</g>
</svg>
